ISO-10303-21;
HEADER;
/* Generated by software containing ST-Developer
 * from STEP Tools, Inc. (www.steptools.com) 
 */
/* OPTION: using custom renumber hook */

FILE_DESCRIPTION(
/* description */ ('STEP AP242 Edition 2',
'CAx-IF Rec.Pracs.---Representation and Presentation of Product Manufa
cturing Information (PMI)---4.0---2014-10-13',
'CAx-IF Rec.Pracs.---3D Tessellated Geometry---0.4---2014-09-14','2;1',
'CAx-IF Rec.Pracs.---User Defined Attributes---1.5---2016-08-15'),
/* implementation_level */ '2;1');

FILE_NAME(
/* name */ 'Part Studio 1 - Part 3',
/* time_stamp */ '2026-10-04T17:52:57Z',
/* author */ (''),
/* organization */ (''),
/* preprocessor_version */ 'ST-DEVELOPER v20',
/* originating_system */ 'ONSHAPE BY PTC INC, 1.221',
/* authorisation */ '  ');

FILE_SCHEMA (('AP242_MANAGED_MODEL_BASED_3D_ENGINEERING_MIM_LF { 1 0 10303 442 3 1 4 }'));
ENDSEC;

DATA;
#10=SHAPE_REPRESENTATION_RELATIONSHIP('','',#740,#11);
#11=ADVANCED_BREP_SHAPE_REPRESENTATION('',(#738),#1336);
#12=VERTEX_LOOP('',#511);
#13=VERTEX_LOOP('',#513);
#14=VERTEX_LOOP('',#515);
#15=VERTEX_LOOP('',#517);
#16=VERTEX_LOOP('',#519);
#17=VERTEX_LOOP('',#521);
#18=CONICAL_SURFACE('',#807,0.0021,1.02974425867665);
#19=CONICAL_SURFACE('',#810,0.0021,1.02974425867665);
#20=CONICAL_SURFACE('',#813,0.0021,1.02974425867665);
#21=CONICAL_SURFACE('',#816,0.0021,1.02974425867665);
#22=CONICAL_SURFACE('',#819,0.0021,1.02974425867665);
#23=CONICAL_SURFACE('',#822,0.0021,1.02974425867665);
#24=(
BOUNDED_SURFACE()
B_SPLINE_SURFACE(3,2,((#1202,#1203,#1204),(#1205,#1206,#1207),(#1208,#1209,
#1210),(#1211,#1212,#1213),(#1214,#1215,#1216),(#1217,#1218,#1219),(#1220,
#1221,#1222)),.UNSPECIFIED.,.F.,.F.,.F.)
B_SPLINE_SURFACE_WITH_KNOTS((4,1,1,1,4),(3,3),(3.14159265358979,3.53429173528852,
3.92699081698724,4.31968989868597,4.71238898038469),(0.,1.),
 .UNSPECIFIED.)
GEOMETRIC_REPRESENTATION_ITEM()
RATIONAL_B_SPLINE_SURFACE(((1.,0.707106781186546,1.),(1.,0.707106781349378,
1.),(1.,0.746571860755083,1.),(1.,0.869029034424752,1.),(1.,0.973464424252544,
1.),(1.,0.999999999985521,1.),(1.,1.,1.)))
REPRESENTATION_ITEM('')
SURFACE()
);
#25=(
BOUNDED_SURFACE()
B_SPLINE_SURFACE(3,2,((#1225,#1226,#1227),(#1228,#1229,#1230),(#1231,#1232,
#1233),(#1234,#1235,#1236),(#1237,#1238,#1239),(#1240,#1241,#1242),(#1243,
#1244,#1245)),.UNSPECIFIED.,.F.,.F.,.F.)
B_SPLINE_SURFACE_WITH_KNOTS((4,1,1,1,4),(3,3),(6.28318530717959,6.67588438887831,
7.06858347057703,7.46128255227576,7.85398163397448),(0.,1.),
 .UNSPECIFIED.)
GEOMETRIC_REPRESENTATION_ITEM()
RATIONAL_B_SPLINE_SURFACE(((1.,0.707106781186546,1.),(1.,0.707106781349379,
1.),(1.,0.746571860755085,1.),(1.,0.869029034424749,1.),(1.,0.973464424252548,
1.),(1.,0.999999999985521,1.),(1.,1.,1.)))
REPRESENTATION_ITEM('')
SURFACE()
);
#26=(
BOUNDED_SURFACE()
B_SPLINE_SURFACE(3,2,((#1248,#1249,#1250),(#1251,#1252,#1253),(#1254,#1255,
#1256),(#1257,#1258,#1259),(#1260,#1261,#1262),(#1263,#1264,#1265),(#1266,
#1267,#1268)),.UNSPECIFIED.,.F.,.F.,.F.)
B_SPLINE_SURFACE_WITH_KNOTS((4,1,1,1,4),(3,3),(6.28318530717959,6.67588438887831,
7.06858347057703,7.46128255227576,7.85398163397448),(0.,1.),
 .UNSPECIFIED.)
GEOMETRIC_REPRESENTATION_ITEM()
RATIONAL_B_SPLINE_SURFACE(((1.,0.707106781186546,1.),(1.,0.707106781350222,
1.),(1.,0.746571860754693,1.),(1.,0.869029034424856,1.),(1.,0.973464424252514,
1.),(1.,0.999999999985521,1.),(1.,1.,1.)))
REPRESENTATION_ITEM('')
SURFACE()
);
#27=(
BOUNDED_SURFACE()
B_SPLINE_SURFACE(3,2,((#1271,#1272,#1273),(#1274,#1275,#1276),(#1277,#1278,
#1279),(#1280,#1281,#1282),(#1283,#1284,#1285),(#1286,#1287,#1288),(#1289,
#1290,#1291)),.UNSPECIFIED.,.F.,.F.,.F.)
B_SPLINE_SURFACE_WITH_KNOTS((4,1,1,1,4),(3,3),(3.14159265358979,3.53429173528852,
3.92699081698724,4.31968989868597,4.71238898038469),(0.,1.),
 .UNSPECIFIED.)
GEOMETRIC_REPRESENTATION_ITEM()
RATIONAL_B_SPLINE_SURFACE(((1.,0.707106781186546,1.),(1.,0.707106781350221,
1.),(1.,0.746571860754691,1.),(1.,0.869029034424862,1.),(1.,0.973464424252514,
1.),(1.,0.999999999985521,1.),(1.,1.,1.)))
REPRESENTATION_ITEM('')
SURFACE()
);
#28=ELLIPSE('',#771,0.00269258240356725,0.0025);
#29=ELLIPSE('',#772,0.00269258240356725,0.0025);
#30=ELLIPSE('',#774,0.00269258240356725,0.0025);
#31=ELLIPSE('',#775,0.00269258240356725,0.0025);
#32=ELLIPSE('',#777,0.00269258240356725,0.0025);
#33=ELLIPSE('',#778,0.00269258240356725,0.0025);
#34=ELLIPSE('',#780,0.00353553390593274,0.0025);
#35=ELLIPSE('',#781,0.00353553390593274,0.0025);
#36=ELLIPSE('',#783,0.00353553390593274,0.0025);
#37=ELLIPSE('',#784,0.00353553390593274,0.0025);
#38=ELLIPSE('',#786,0.00269258240356725,0.0025);
#39=ELLIPSE('',#787,0.00353553390593274,0.0025);
#40=ELLIPSE('',#788,0.00269258240356725,0.0025);
#41=ELLIPSE('',#790,0.00353553390593274,0.0025);
#42=CYLINDRICAL_SURFACE('',#770,0.0025);
#43=CYLINDRICAL_SURFACE('',#773,0.0025);
#44=CYLINDRICAL_SURFACE('',#776,0.0025);
#45=CYLINDRICAL_SURFACE('',#779,0.0025);
#46=CYLINDRICAL_SURFACE('',#782,0.0025);
#47=CYLINDRICAL_SURFACE('',#785,0.0025);
#48=CYLINDRICAL_SURFACE('',#789,0.0025);
#49=CYLINDRICAL_SURFACE('',#791,0.0025);
#50=CYLINDRICAL_SURFACE('',#792,0.0015);
#51=CYLINDRICAL_SURFACE('',#794,0.0015);
#52=CYLINDRICAL_SURFACE('',#796,0.0015);
#53=CYLINDRICAL_SURFACE('',#798,0.0015);
#54=CYLINDRICAL_SURFACE('',#801,0.002);
#55=CYLINDRICAL_SURFACE('',#803,0.002);
#56=CYLINDRICAL_SURFACE('',#805,0.002);
#57=CYLINDRICAL_SURFACE('',#806,0.002);
#58=CYLINDRICAL_SURFACE('',#809,0.0021);
#59=CYLINDRICAL_SURFACE('',#812,0.0021);
#60=CYLINDRICAL_SURFACE('',#815,0.0021);
#61=CYLINDRICAL_SURFACE('',#818,0.0021);
#62=CYLINDRICAL_SURFACE('',#821,0.0021);
#63=CYLINDRICAL_SURFACE('',#824,0.0021);
#64=LINE('',#1051,#117);
#65=LINE('',#1053,#118);
#66=LINE('',#1055,#119);
#67=LINE('',#1057,#120);
#68=LINE('',#1059,#121);
#69=LINE('',#1063,#122);
#70=LINE('',#1067,#123);
#71=LINE('',#1071,#124);
#72=LINE('',#1073,#125);
#73=LINE('',#1076,#126);
#74=LINE('',#1078,#127);
#75=LINE('',#1080,#128);
#76=LINE('',#1082,#129);
#77=LINE('',#1085,#130);
#78=LINE('',#1087,#131);
#79=LINE('',#1089,#132);
#80=LINE('',#1091,#133);
#81=LINE('',#1094,#134);
#82=LINE('',#1096,#135);
#83=LINE('',#1098,#136);
#84=LINE('',#1100,#137);
#85=LINE('',#1104,#138);
#86=LINE('',#1108,#139);
#87=LINE('',#1112,#140);
#88=LINE('',#1116,#141);
#89=LINE('',#1118,#142);
#90=LINE('',#1120,#143);
#91=LINE('',#1122,#144);
#92=LINE('',#1125,#145);
#93=LINE('',#1126,#146);
#94=LINE('',#1128,#147);
#95=LINE('',#1129,#148);
#96=LINE('',#1131,#149);
#97=LINE('',#1134,#150);
#98=LINE('',#1136,#151);
#99=LINE('',#1138,#152);
#100=LINE('',#1140,#153);
#101=LINE('',#1143,#154);
#102=LINE('',#1145,#155);
#103=LINE('',#1147,#156);
#104=LINE('',#1149,#157);
#105=LINE('',#1151,#158);
#106=LINE('',#1153,#159);
#107=LINE('',#1155,#160);
#108=LINE('',#1169,#161);
#109=LINE('',#1170,#162);
#110=LINE('',#1193,#163);
#111=LINE('',#1293,#164);
#112=LINE('',#1294,#165);
#113=LINE('',#1296,#166);
#114=LINE('',#1298,#167);
#115=LINE('',#1300,#168);
#116=LINE('',#1302,#169);
#117=VECTOR('',#831,1.);
#118=VECTOR('',#832,1.);
#119=VECTOR('',#833,1.);
#120=VECTOR('',#834,1.);
#121=VECTOR('',#835,1.);
#122=VECTOR('',#838,1.);
#123=VECTOR('',#841,1.);
#124=VECTOR('',#844,1.);
#125=VECTOR('',#847,1.);
#126=VECTOR('',#848,1.);
#127=VECTOR('',#849,1.);
#128=VECTOR('',#850,1.);
#129=VECTOR('',#853,1.);
#130=VECTOR('',#854,1.);
#131=VECTOR('',#855,1.);
#132=VECTOR('',#856,1.);
#133=VECTOR('',#859,1.);
#134=VECTOR('',#860,1.);
#135=VECTOR('',#861,1.);
#136=VECTOR('',#862,1.);
#137=VECTOR('',#865,1.);
#138=VECTOR('',#868,1.);
#139=VECTOR('',#871,1.);
#140=VECTOR('',#874,1.);
#141=VECTOR('',#877,1.);
#142=VECTOR('',#878,1.);
#143=VECTOR('',#879,1.);
#144=VECTOR('',#882,1.);
#145=VECTOR('',#883,1.);
#146=VECTOR('',#884,1.);
#147=VECTOR('',#887,1.);
#148=VECTOR('',#888,1.);
#149=VECTOR('',#891,1.);
#150=VECTOR('',#892,1.);
#151=VECTOR('',#893,1.);
#152=VECTOR('',#894,1.);
#153=VECTOR('',#897,1.);
#154=VECTOR('',#898,1.);
#155=VECTOR('',#899,1.);
#156=VECTOR('',#900,1.);
#157=VECTOR('',#901,1.);
#158=VECTOR('',#902,1.);
#159=VECTOR('',#903,1.);
#160=VECTOR('',#904,1.);
#161=VECTOR('',#919,1.);
#162=VECTOR('',#920,1.);
#163=VECTOR('',#963,1.);
#164=VECTOR('',#992,1.);
#165=VECTOR('',#993,1.);
#166=VECTOR('',#996,1.);
#167=VECTOR('',#999,1.);
#168=VECTOR('',#1002,1.);
#169=VECTOR('',#1005,1.);
#170=ORIENTED_EDGE('',*,*,#360,.F.);
#171=ORIENTED_EDGE('',*,*,#361,.F.);
#172=ORIENTED_EDGE('',*,*,#362,.T.);
#173=ORIENTED_EDGE('',*,*,#363,.T.);
#174=ORIENTED_EDGE('',*,*,#364,.T.);
#175=ORIENTED_EDGE('',*,*,#365,.F.);
#176=ORIENTED_EDGE('',*,*,#366,.F.);
#177=ORIENTED_EDGE('',*,*,#367,.F.);
#178=ORIENTED_EDGE('',*,*,#368,.F.);
#179=ORIENTED_EDGE('',*,*,#369,.T.);
#180=ORIENTED_EDGE('',*,*,#370,.F.);
#181=ORIENTED_EDGE('',*,*,#371,.T.);
#182=ORIENTED_EDGE('',*,*,#372,.T.);
#183=ORIENTED_EDGE('',*,*,#373,.T.);
#184=ORIENTED_EDGE('',*,*,#374,.T.);
#185=ORIENTED_EDGE('',*,*,#375,.T.);
#186=ORIENTED_EDGE('',*,*,#376,.T.);
#187=ORIENTED_EDGE('',*,*,#377,.T.);
#188=ORIENTED_EDGE('',*,*,#378,.T.);
#189=ORIENTED_EDGE('',*,*,#379,.T.);
#190=ORIENTED_EDGE('',*,*,#380,.F.);
#191=ORIENTED_EDGE('',*,*,#381,.T.);
#192=ORIENTED_EDGE('',*,*,#382,.T.);
#193=ORIENTED_EDGE('',*,*,#383,.F.);
#194=ORIENTED_EDGE('',*,*,#384,.T.);
#195=ORIENTED_EDGE('',*,*,#385,.T.);
#196=ORIENTED_EDGE('',*,*,#386,.F.);
#197=ORIENTED_EDGE('',*,*,#387,.T.);
#198=ORIENTED_EDGE('',*,*,#388,.F.);
#199=ORIENTED_EDGE('',*,*,#389,.T.);
#200=ORIENTED_EDGE('',*,*,#390,.T.);
#201=ORIENTED_EDGE('',*,*,#391,.T.);
#202=ORIENTED_EDGE('',*,*,#392,.T.);
#203=ORIENTED_EDGE('',*,*,#393,.F.);
#204=ORIENTED_EDGE('',*,*,#394,.T.);
#205=ORIENTED_EDGE('',*,*,#380,.T.);
#206=ORIENTED_EDGE('',*,*,#395,.F.);
#207=ORIENTED_EDGE('',*,*,#396,.T.);
#208=ORIENTED_EDGE('',*,*,#393,.T.);
#209=ORIENTED_EDGE('',*,*,#397,.T.);
#210=ORIENTED_EDGE('',*,*,#382,.F.);
#211=ORIENTED_EDGE('',*,*,#398,.T.);
#212=ORIENTED_EDGE('',*,*,#395,.T.);
#213=ORIENTED_EDGE('',*,*,#399,.F.);
#214=ORIENTED_EDGE('',*,*,#400,.F.);
#215=ORIENTED_EDGE('',*,*,#401,.T.);
#216=ORIENTED_EDGE('',*,*,#402,.T.);
#217=ORIENTED_EDGE('',*,*,#403,.T.);
#218=ORIENTED_EDGE('',*,*,#404,.T.);
#219=ORIENTED_EDGE('',*,*,#405,.T.);
#220=ORIENTED_EDGE('',*,*,#406,.T.);
#221=ORIENTED_EDGE('',*,*,#407,.T.);
#222=ORIENTED_EDGE('',*,*,#408,.T.);
#223=ORIENTED_EDGE('',*,*,#409,.T.);
#224=ORIENTED_EDGE('',*,*,#410,.T.);
#225=ORIENTED_EDGE('',*,*,#411,.T.);
#226=ORIENTED_EDGE('',*,*,#412,.T.);
#227=ORIENTED_EDGE('',*,*,#413,.T.);
#228=ORIENTED_EDGE('',*,*,#414,.T.);
#229=ORIENTED_EDGE('',*,*,#415,.T.);
#230=ORIENTED_EDGE('',*,*,#416,.T.);
#231=ORIENTED_EDGE('',*,*,#417,.T.);
#232=ORIENTED_EDGE('',*,*,#361,.T.);
#233=ORIENTED_EDGE('',*,*,#418,.T.);
#234=ORIENTED_EDGE('',*,*,#384,.F.);
#235=ORIENTED_EDGE('',*,*,#383,.T.);
#236=ORIENTED_EDGE('',*,*,#399,.T.);
#237=ORIENTED_EDGE('',*,*,#397,.F.);
#238=ORIENTED_EDGE('',*,*,#392,.F.);
#239=ORIENTED_EDGE('',*,*,#419,.T.);
#240=ORIENTED_EDGE('',*,*,#365,.T.);
#241=ORIENTED_EDGE('',*,*,#420,.T.);
#242=ORIENTED_EDGE('',*,*,#400,.T.);
#243=ORIENTED_EDGE('',*,*,#421,.T.);
#244=ORIENTED_EDGE('',*,*,#376,.F.);
#245=ORIENTED_EDGE('',*,*,#422,.T.);
#246=ORIENTED_EDGE('',*,*,#374,.F.);
#247=ORIENTED_EDGE('',*,*,#423,.T.);
#248=ORIENTED_EDGE('',*,*,#378,.F.);
#249=ORIENTED_EDGE('',*,*,#424,.T.);
#250=ORIENTED_EDGE('',*,*,#407,.F.);
#251=ORIENTED_EDGE('',*,*,#425,.T.);
#252=ORIENTED_EDGE('',*,*,#406,.F.);
#253=ORIENTED_EDGE('',*,*,#426,.T.);
#254=ORIENTED_EDGE('',*,*,#372,.F.);
#255=ORIENTED_EDGE('',*,*,#427,.T.);
#256=ORIENTED_EDGE('',*,*,#402,.F.);
#257=ORIENTED_EDGE('',*,*,#428,.T.);
#258=ORIENTED_EDGE('',*,*,#408,.F.);
#259=ORIENTED_EDGE('',*,*,#429,.T.);
#260=ORIENTED_EDGE('',*,*,#430,.F.);
#261=ORIENTED_EDGE('',*,*,#398,.F.);
#262=ORIENTED_EDGE('',*,*,#431,.F.);
#263=ORIENTED_EDGE('',*,*,#411,.F.);
#264=ORIENTED_EDGE('',*,*,#432,.F.);
#265=ORIENTED_EDGE('',*,*,#404,.F.);
#266=ORIENTED_EDGE('',*,*,#431,.T.);
#267=ORIENTED_EDGE('',*,*,#381,.F.);
#268=ORIENTED_EDGE('',*,*,#433,.F.);
#269=ORIENTED_EDGE('',*,*,#363,.F.);
#270=ORIENTED_EDGE('',*,*,#434,.T.);
#271=ORIENTED_EDGE('',*,*,#405,.F.);
#272=ORIENTED_EDGE('',*,*,#432,.T.);
#273=ORIENTED_EDGE('',*,*,#435,.F.);
#274=ORIENTED_EDGE('',*,*,#436,.F.);
#275=ORIENTED_EDGE('',*,*,#409,.F.);
#276=ORIENTED_EDGE('',*,*,#437,.T.);
#277=ORIENTED_EDGE('',*,*,#410,.F.);
#278=ORIENTED_EDGE('',*,*,#436,.T.);
#279=ORIENTED_EDGE('',*,*,#438,.F.);
#280=ORIENTED_EDGE('',*,*,#396,.F.);
#281=ORIENTED_EDGE('',*,*,#430,.T.);
#282=ORIENTED_EDGE('',*,*,#433,.T.);
#283=ORIENTED_EDGE('',*,*,#394,.F.);
#284=ORIENTED_EDGE('',*,*,#438,.T.);
#285=ORIENTED_EDGE('',*,*,#435,.T.);
#286=ORIENTED_EDGE('',*,*,#423,.F.);
#287=ORIENTED_EDGE('',*,*,#373,.F.);
#288=ORIENTED_EDGE('',*,*,#439,.F.);
#289=ORIENTED_EDGE('',*,*,#362,.F.);
#290=ORIENTED_EDGE('',*,*,#439,.T.);
#291=ORIENTED_EDGE('',*,*,#426,.F.);
#292=ORIENTED_EDGE('',*,*,#434,.F.);
#293=ORIENTED_EDGE('',*,*,#420,.F.);
#294=ORIENTED_EDGE('',*,*,#364,.F.);
#295=ORIENTED_EDGE('',*,*,#440,.F.);
#296=ORIENTED_EDGE('',*,*,#401,.F.);
#297=ORIENTED_EDGE('',*,*,#437,.F.);
#298=ORIENTED_EDGE('',*,*,#428,.F.);
#299=ORIENTED_EDGE('',*,*,#440,.T.);
#300=ORIENTED_EDGE('',*,*,#421,.F.);
#301=ORIENTED_EDGE('',*,*,#403,.F.);
#302=ORIENTED_EDGE('',*,*,#441,.F.);
#303=ORIENTED_EDGE('',*,*,#377,.F.);
#304=ORIENTED_EDGE('',*,*,#429,.F.);
#305=ORIENTED_EDGE('',*,*,#424,.F.);
#306=ORIENTED_EDGE('',*,*,#441,.T.);
#307=ORIENTED_EDGE('',*,*,#422,.F.);
#308=ORIENTED_EDGE('',*,*,#379,.F.);
#309=ORIENTED_EDGE('',*,*,#442,.F.);
#310=ORIENTED_EDGE('',*,*,#375,.F.);
#311=ORIENTED_EDGE('',*,*,#442,.T.);
#312=ORIENTED_EDGE('',*,*,#425,.F.);
#313=ORIENTED_EDGE('',*,*,#427,.F.);
#314=ORIENTED_EDGE('',*,*,#386,.T.);
#315=ORIENTED_EDGE('',*,*,#443,.T.);
#316=ORIENTED_EDGE('',*,*,#371,.F.);
#317=ORIENTED_EDGE('',*,*,#444,.F.);
#318=ORIENTED_EDGE('',*,*,#444,.T.);
#319=ORIENTED_EDGE('',*,*,#370,.T.);
#320=ORIENTED_EDGE('',*,*,#445,.F.);
#321=ORIENTED_EDGE('',*,*,#387,.F.);
#322=ORIENTED_EDGE('',*,*,#388,.T.);
#323=ORIENTED_EDGE('',*,*,#445,.T.);
#324=ORIENTED_EDGE('',*,*,#369,.F.);
#325=ORIENTED_EDGE('',*,*,#446,.F.);
#326=ORIENTED_EDGE('',*,*,#446,.T.);
#327=ORIENTED_EDGE('',*,*,#368,.T.);
#328=ORIENTED_EDGE('',*,*,#447,.F.);
#329=ORIENTED_EDGE('',*,*,#389,.F.);
#330=ORIENTED_EDGE('',*,*,#447,.T.);
#331=ORIENTED_EDGE('',*,*,#367,.T.);
#332=ORIENTED_EDGE('',*,*,#448,.F.);
#333=ORIENTED_EDGE('',*,*,#390,.F.);
#334=ORIENTED_EDGE('',*,*,#418,.F.);
#335=ORIENTED_EDGE('',*,*,#360,.T.);
#336=ORIENTED_EDGE('',*,*,#443,.F.);
#337=ORIENTED_EDGE('',*,*,#385,.F.);
#338=ORIENTED_EDGE('',*,*,#448,.T.);
#339=ORIENTED_EDGE('',*,*,#366,.T.);
#340=ORIENTED_EDGE('',*,*,#419,.F.);
#341=ORIENTED_EDGE('',*,*,#391,.F.);
#342=ORIENTED_EDGE('',*,*,#449,.F.);
#343=ORIENTED_EDGE('',*,*,#449,.T.);
#344=ORIENTED_EDGE('',*,*,#417,.F.);
#345=ORIENTED_EDGE('',*,*,#450,.F.);
#346=ORIENTED_EDGE('',*,*,#450,.T.);
#347=ORIENTED_EDGE('',*,*,#416,.F.);
#348=ORIENTED_EDGE('',*,*,#451,.F.);
#349=ORIENTED_EDGE('',*,*,#451,.T.);
#350=ORIENTED_EDGE('',*,*,#415,.F.);
#351=ORIENTED_EDGE('',*,*,#452,.F.);
#352=ORIENTED_EDGE('',*,*,#452,.T.);
#353=ORIENTED_EDGE('',*,*,#414,.F.);
#354=ORIENTED_EDGE('',*,*,#453,.F.);
#355=ORIENTED_EDGE('',*,*,#453,.T.);
#356=ORIENTED_EDGE('',*,*,#413,.F.);
#357=ORIENTED_EDGE('',*,*,#454,.F.);
#358=ORIENTED_EDGE('',*,*,#454,.T.);
#359=ORIENTED_EDGE('',*,*,#412,.F.);
#360=EDGE_CURVE('',#455,#456,#523,.T.);
#361=EDGE_CURVE('',#457,#455,#64,.T.);
#362=EDGE_CURVE('',#457,#458,#65,.F.);
#363=EDGE_CURVE('',#458,#459,#66,.T.);
#364=EDGE_CURVE('',#459,#460,#67,.T.);
#365=EDGE_CURVE('',#461,#460,#68,.T.);
#366=EDGE_CURVE('',#462,#461,#524,.T.);
#367=EDGE_CURVE('',#463,#462,#69,.T.);
#368=EDGE_CURVE('',#464,#463,#525,.T.);
#369=EDGE_CURVE('',#464,#465,#70,.T.);
#370=EDGE_CURVE('',#466,#465,#526,.T.);
#371=EDGE_CURVE('',#466,#456,#71,.T.);
#372=EDGE_CURVE('',#467,#468,#72,.F.);
#373=EDGE_CURVE('',#468,#469,#73,.T.);
#374=EDGE_CURVE('',#469,#470,#74,.T.);
#375=EDGE_CURVE('',#470,#467,#75,.F.);
#376=EDGE_CURVE('',#471,#472,#76,.T.);
#377=EDGE_CURVE('',#472,#473,#77,.F.);
#378=EDGE_CURVE('',#473,#474,#78,.F.);
#379=EDGE_CURVE('',#474,#471,#79,.T.);
#380=EDGE_CURVE('',#475,#476,#80,.T.);
#381=EDGE_CURVE('',#475,#477,#81,.T.);
#382=EDGE_CURVE('',#477,#478,#82,.T.);
#383=EDGE_CURVE('',#476,#478,#83,.T.);
#384=EDGE_CURVE('',#476,#479,#84,.T.);
#385=EDGE_CURVE('',#479,#480,#527,.T.);
#386=EDGE_CURVE('',#481,#480,#85,.T.);
#387=EDGE_CURVE('',#481,#482,#528,.T.);
#388=EDGE_CURVE('',#483,#482,#86,.T.);
#389=EDGE_CURVE('',#483,#484,#529,.T.);
#390=EDGE_CURVE('',#484,#485,#87,.T.);
#391=EDGE_CURVE('',#485,#486,#530,.T.);
#392=EDGE_CURVE('',#486,#487,#88,.T.);
#393=EDGE_CURVE('',#488,#487,#89,.T.);
#394=EDGE_CURVE('',#488,#475,#90,.F.);
#395=EDGE_CURVE('',#489,#490,#91,.T.);
#396=EDGE_CURVE('',#489,#488,#92,.F.);
#397=EDGE_CURVE('',#487,#490,#93,.T.);
#398=EDGE_CURVE('',#477,#489,#94,.T.);
#399=EDGE_CURVE('',#478,#490,#95,.T.);
#400=EDGE_CURVE('',#491,#492,#96,.T.);
#401=EDGE_CURVE('',#491,#493,#97,.F.);
#402=EDGE_CURVE('',#493,#494,#98,.T.);
#403=EDGE_CURVE('',#494,#492,#99,.T.);
#404=EDGE_CURVE('',#495,#496,#100,.F.);
#405=EDGE_CURVE('',#496,#497,#101,.F.);
#406=EDGE_CURVE('',#497,#498,#102,.T.);
#407=EDGE_CURVE('',#498,#499,#103,.T.);
#408=EDGE_CURVE('',#499,#500,#104,.F.);
#409=EDGE_CURVE('',#500,#501,#105,.F.);
#410=EDGE_CURVE('',#501,#502,#106,.T.);
#411=EDGE_CURVE('',#502,#495,#107,.F.);
#412=EDGE_CURVE('',#503,#503,#531,.T.);
#413=EDGE_CURVE('',#504,#504,#532,.T.);
#414=EDGE_CURVE('',#505,#505,#533,.T.);
#415=EDGE_CURVE('',#506,#506,#534,.T.);
#416=EDGE_CURVE('',#507,#507,#535,.T.);
#417=EDGE_CURVE('',#508,#508,#536,.T.);
#418=EDGE_CURVE('',#455,#479,#108,.F.);
#419=EDGE_CURVE('',#486,#461,#109,.T.);
#420=EDGE_CURVE('',#460,#491,#537,.F.);
#421=EDGE_CURVE('',#492,#472,#538,.F.);
#422=EDGE_CURVE('',#471,#470,#539,.F.);
#423=EDGE_CURVE('',#469,#457,#540,.F.);
#424=EDGE_CURVE('',#473,#499,#28,.F.);
#425=EDGE_CURVE('',#498,#474,#29,.T.);
#426=EDGE_CURVE('',#497,#468,#30,.T.);
#427=EDGE_CURVE('',#467,#498,#31,.F.);
#428=EDGE_CURVE('',#493,#500,#32,.F.);
#429=EDGE_CURVE('',#499,#494,#33,.T.);
#430=EDGE_CURVE('',#489,#502,#34,.T.);
#431=EDGE_CURVE('',#495,#477,#35,.F.);
#432=EDGE_CURVE('',#496,#509,#36,.F.);
#433=EDGE_CURVE('',#509,#475,#37,.F.);
#434=EDGE_CURVE('',#458,#497,#38,.F.);
#435=EDGE_CURVE('',#510,#509,#110,.F.);
#436=EDGE_CURVE('',#501,#510,#39,.F.);
#437=EDGE_CURVE('',#500,#459,#40,.T.);
#438=EDGE_CURVE('',#488,#510,#41,.T.);
#439=EDGE_CURVE('',#458,#468,#541,.T.);
#440=EDGE_CURVE('',#493,#459,#542,.T.);
#441=EDGE_CURVE('',#473,#494,#543,.T.);
#442=EDGE_CURVE('',#467,#474,#544,.T.);
#443=EDGE_CURVE('',#480,#456,#111,.T.);
#444=EDGE_CURVE('',#481,#466,#112,.T.);
#445=EDGE_CURVE('',#482,#465,#113,.T.);
#446=EDGE_CURVE('',#483,#464,#114,.T.);
#447=EDGE_CURVE('',#484,#463,#115,.T.);
#448=EDGE_CURVE('',#485,#462,#116,.T.);
#449=EDGE_CURVE('',#512,#512,#545,.T.);
#450=EDGE_CURVE('',#514,#514,#546,.T.);
#451=EDGE_CURVE('',#516,#516,#547,.T.);
#452=EDGE_CURVE('',#518,#518,#548,.T.);
#453=EDGE_CURVE('',#520,#520,#549,.T.);
#454=EDGE_CURVE('',#522,#522,#550,.T.);
#455=VERTEX_POINT('',#1049);
#456=VERTEX_POINT('',#1050);
#457=VERTEX_POINT('',#1052);
#458=VERTEX_POINT('',#1054);
#459=VERTEX_POINT('',#1056);
#460=VERTEX_POINT('',#1058);
#461=VERTEX_POINT('',#1060);
#462=VERTEX_POINT('',#1062);
#463=VERTEX_POINT('',#1064);
#464=VERTEX_POINT('',#1066);
#465=VERTEX_POINT('',#1068);
#466=VERTEX_POINT('',#1070);
#467=VERTEX_POINT('',#1074);
#468=VERTEX_POINT('',#1075);
#469=VERTEX_POINT('',#1077);
#470=VERTEX_POINT('',#1079);
#471=VERTEX_POINT('',#1083);
#472=VERTEX_POINT('',#1084);
#473=VERTEX_POINT('',#1086);
#474=VERTEX_POINT('',#1088);
#475=VERTEX_POINT('',#1092);
#476=VERTEX_POINT('',#1093);
#477=VERTEX_POINT('',#1095);
#478=VERTEX_POINT('',#1097);
#479=VERTEX_POINT('',#1101);
#480=VERTEX_POINT('',#1103);
#481=VERTEX_POINT('',#1105);
#482=VERTEX_POINT('',#1107);
#483=VERTEX_POINT('',#1109);
#484=VERTEX_POINT('',#1111);
#485=VERTEX_POINT('',#1113);
#486=VERTEX_POINT('',#1115);
#487=VERTEX_POINT('',#1117);
#488=VERTEX_POINT('',#1119);
#489=VERTEX_POINT('',#1123);
#490=VERTEX_POINT('',#1124);
#491=VERTEX_POINT('',#1132);
#492=VERTEX_POINT('',#1133);
#493=VERTEX_POINT('',#1135);
#494=VERTEX_POINT('',#1137);
#495=VERTEX_POINT('',#1141);
#496=VERTEX_POINT('',#1142);
#497=VERTEX_POINT('',#1144);
#498=VERTEX_POINT('',#1146);
#499=VERTEX_POINT('',#1148);
#500=VERTEX_POINT('',#1150);
#501=VERTEX_POINT('',#1152);
#502=VERTEX_POINT('',#1154);
#503=VERTEX_POINT('',#1158);
#504=VERTEX_POINT('',#1160);
#505=VERTEX_POINT('',#1162);
#506=VERTEX_POINT('',#1164);
#507=VERTEX_POINT('',#1166);
#508=VERTEX_POINT('',#1168);
#509=VERTEX_POINT('',#1189);
#510=VERTEX_POINT('',#1194);
#511=VERTEX_POINT('',#1306);
#512=VERTEX_POINT('',#1308);
#513=VERTEX_POINT('',#1311);
#514=VERTEX_POINT('',#1313);
#515=VERTEX_POINT('',#1316);
#516=VERTEX_POINT('',#1318);
#517=VERTEX_POINT('',#1321);
#518=VERTEX_POINT('',#1323);
#519=VERTEX_POINT('',#1326);
#520=VERTEX_POINT('',#1328);
#521=VERTEX_POINT('',#1331);
#522=VERTEX_POINT('',#1333);
#523=CIRCLE('',#743,0.002);
#524=CIRCLE('',#744,0.002);
#525=CIRCLE('',#745,0.002);
#526=CIRCLE('',#746,0.002);
#527=CIRCLE('',#751,0.002);
#528=CIRCLE('',#752,0.002);
#529=CIRCLE('',#753,0.002);
#530=CIRCLE('',#754,0.002);
#531=CIRCLE('',#760,0.0021);
#532=CIRCLE('',#761,0.0021);
#533=CIRCLE('',#762,0.0021);
#534=CIRCLE('',#763,0.0021);
#535=CIRCLE('',#764,0.0021);
#536=CIRCLE('',#765,0.0021);
#537=CIRCLE('',#766,0.0015);
#538=CIRCLE('',#767,0.0015);
#539=CIRCLE('',#768,0.0015);
#540=CIRCLE('',#769,0.0015);
#541=CIRCLE('',#793,0.0015);
#542=CIRCLE('',#795,0.0015);
#543=CIRCLE('',#797,0.0015);
#544=CIRCLE('',#799,0.0015);
#545=CIRCLE('',#808,0.0021);
#546=CIRCLE('',#811,0.0021);
#547=CIRCLE('',#814,0.0021);
#548=CIRCLE('',#817,0.0021);
#549=CIRCLE('',#820,0.0021);
#550=CIRCLE('',#823,0.0021);
#551=EDGE_LOOP('',(#170,#171,#172,#173,#174,#175,#176,#177,#178,#179,#180,
#181));
#552=EDGE_LOOP('',(#182,#183,#184,#185));
#553=EDGE_LOOP('',(#186,#187,#188,#189));
#554=EDGE_LOOP('',(#190,#191,#192,#193));
#555=EDGE_LOOP('',(#194,#195,#196,#197,#198,#199,#200,#201,#202,#203,#204,
#205));
#556=EDGE_LOOP('',(#206,#207,#208,#209));
#557=EDGE_LOOP('',(#210,#211,#212,#213));
#558=EDGE_LOOP('',(#214,#215,#216,#217));
#559=EDGE_LOOP('',(#218,#219,#220,#221,#222,#223,#224,#225));
#560=EDGE_LOOP('',(#226));
#561=EDGE_LOOP('',(#227));
#562=EDGE_LOOP('',(#228));
#563=EDGE_LOOP('',(#229));
#564=EDGE_LOOP('',(#230));
#565=EDGE_LOOP('',(#231));
#566=EDGE_LOOP('',(#232,#233,#234,#235,#236,#237,#238,#239,#240,#241,#242,
#243,#244,#245,#246,#247));
#567=EDGE_LOOP('',(#248,#249,#250,#251));
#568=EDGE_LOOP('',(#252,#253,#254,#255));
#569=EDGE_LOOP('',(#256,#257,#258,#259));
#570=EDGE_LOOP('',(#260,#261,#262,#263));
#571=EDGE_LOOP('',(#264,#265,#266,#267,#268));
#572=EDGE_LOOP('',(#269,#270,#271,#272,#273,#274,#275,#276));
#573=EDGE_LOOP('',(#277,#278,#279,#280,#281));
#574=EDGE_LOOP('',(#282,#283,#284,#285));
#575=EDGE_LOOP('',(#286,#287,#288,#289));
#576=EDGE_LOOP('',(#290,#291,#292));
#577=EDGE_LOOP('',(#293,#294,#295,#296));
#578=EDGE_LOOP('',(#297,#298,#299));
#579=EDGE_LOOP('',(#300,#301,#302,#303));
#580=EDGE_LOOP('',(#304,#305,#306));
#581=EDGE_LOOP('',(#307,#308,#309,#310));
#582=EDGE_LOOP('',(#311,#312,#313));
#583=EDGE_LOOP('',(#314,#315,#316,#317));
#584=EDGE_LOOP('',(#318,#319,#320,#321));
#585=EDGE_LOOP('',(#322,#323,#324,#325));
#586=EDGE_LOOP('',(#326,#327,#328,#329));
#587=EDGE_LOOP('',(#330,#331,#332,#333));
#588=EDGE_LOOP('',(#334,#335,#336,#337));
#589=EDGE_LOOP('',(#338,#339,#340,#341));
#590=EDGE_LOOP('',(#342));
#591=EDGE_LOOP('',(#343));
#592=EDGE_LOOP('',(#344));
#593=EDGE_LOOP('',(#345));
#594=EDGE_LOOP('',(#346));
#595=EDGE_LOOP('',(#347));
#596=EDGE_LOOP('',(#348));
#597=EDGE_LOOP('',(#349));
#598=EDGE_LOOP('',(#350));
#599=EDGE_LOOP('',(#351));
#600=EDGE_LOOP('',(#352));
#601=EDGE_LOOP('',(#353));
#602=EDGE_LOOP('',(#354));
#603=EDGE_LOOP('',(#355));
#604=EDGE_LOOP('',(#356));
#605=EDGE_LOOP('',(#357));
#606=EDGE_LOOP('',(#358));
#607=EDGE_LOOP('',(#359));
#608=FACE_BOUND('',#551,.T.);
#609=FACE_BOUND('',#552,.T.);
#610=FACE_BOUND('',#553,.T.);
#611=FACE_BOUND('',#554,.T.);
#612=FACE_BOUND('',#555,.T.);
#613=FACE_BOUND('',#556,.T.);
#614=FACE_BOUND('',#557,.T.);
#615=FACE_BOUND('',#558,.T.);
#616=FACE_BOUND('',#559,.T.);
#617=FACE_BOUND('',#560,.T.);
#618=FACE_BOUND('',#561,.T.);
#619=FACE_BOUND('',#562,.T.);
#620=FACE_BOUND('',#563,.T.);
#621=FACE_BOUND('',#564,.T.);
#622=FACE_BOUND('',#565,.T.);
#623=FACE_BOUND('',#566,.T.);
#624=FACE_BOUND('',#567,.T.);
#625=FACE_BOUND('',#568,.T.);
#626=FACE_BOUND('',#569,.T.);
#627=FACE_BOUND('',#570,.T.);
#628=FACE_BOUND('',#571,.T.);
#629=FACE_BOUND('',#572,.T.);
#630=FACE_BOUND('',#573,.T.);
#631=FACE_BOUND('',#574,.T.);
#632=FACE_BOUND('',#575,.T.);
#633=FACE_BOUND('',#576,.T.);
#634=FACE_BOUND('',#577,.T.);
#635=FACE_BOUND('',#578,.T.);
#636=FACE_BOUND('',#579,.T.);
#637=FACE_BOUND('',#580,.T.);
#638=FACE_BOUND('',#581,.T.);
#639=FACE_BOUND('',#582,.T.);
#640=FACE_BOUND('',#583,.T.);
#641=FACE_BOUND('',#584,.T.);
#642=FACE_BOUND('',#585,.T.);
#643=FACE_BOUND('',#586,.T.);
#644=FACE_BOUND('',#587,.T.);
#645=FACE_BOUND('',#588,.T.);
#646=FACE_BOUND('',#589,.T.);
#647=FACE_BOUND('',#12,.T.);
#648=FACE_BOUND('',#590,.T.);
#649=FACE_BOUND('',#591,.T.);
#650=FACE_BOUND('',#592,.T.);
#651=FACE_BOUND('',#13,.T.);
#652=FACE_BOUND('',#593,.T.);
#653=FACE_BOUND('',#594,.T.);
#654=FACE_BOUND('',#595,.T.);
#655=FACE_BOUND('',#14,.T.);
#656=FACE_BOUND('',#596,.T.);
#657=FACE_BOUND('',#597,.T.);
#658=FACE_BOUND('',#598,.T.);
#659=FACE_BOUND('',#15,.T.);
#660=FACE_BOUND('',#599,.T.);
#661=FACE_BOUND('',#600,.T.);
#662=FACE_BOUND('',#601,.T.);
#663=FACE_BOUND('',#16,.T.);
#664=FACE_BOUND('',#602,.T.);
#665=FACE_BOUND('',#603,.T.);
#666=FACE_BOUND('',#604,.T.);
#667=FACE_BOUND('',#17,.T.);
#668=FACE_BOUND('',#605,.T.);
#669=FACE_BOUND('',#606,.T.);
#670=FACE_BOUND('',#607,.T.);
#671=PLANE('',#742);
#672=PLANE('',#747);
#673=PLANE('',#748);
#674=PLANE('',#749);
#675=PLANE('',#750);
#676=PLANE('',#755);
#677=PLANE('',#756);
#678=PLANE('',#757);
#679=PLANE('',#758);
#680=PLANE('',#759);
#681=PLANE('',#800);
#682=PLANE('',#802);
#683=PLANE('',#804);
#684=ADVANCED_FACE('',(#608),#671,.T.);
#685=ADVANCED_FACE('',(#609),#672,.F.);
#686=ADVANCED_FACE('',(#610),#673,.F.);
#687=ADVANCED_FACE('',(#611),#674,.T.);
#688=ADVANCED_FACE('',(#612),#675,.F.);
#689=ADVANCED_FACE('',(#613),#676,.F.);
#690=ADVANCED_FACE('',(#614),#677,.T.);
#691=ADVANCED_FACE('',(#615),#678,.T.);
#692=ADVANCED_FACE('',(#616),#679,.T.);
#693=ADVANCED_FACE('',(#617,#618,#619,#620,#621,#622,#623),#680,.F.);
#694=ADVANCED_FACE('',(#624),#42,.T.);
#695=ADVANCED_FACE('',(#625),#43,.T.);
#696=ADVANCED_FACE('',(#626),#44,.T.);
#697=ADVANCED_FACE('',(#627),#45,.T.);
#698=ADVANCED_FACE('',(#628),#46,.T.);
#699=ADVANCED_FACE('',(#629),#47,.T.);
#700=ADVANCED_FACE('',(#630),#48,.T.);
#701=ADVANCED_FACE('',(#631),#49,.T.);
#702=ADVANCED_FACE('',(#632),#50,.T.);
#703=ADVANCED_FACE('',(#633),#24,.T.);
#704=ADVANCED_FACE('',(#634),#51,.T.);
#705=ADVANCED_FACE('',(#635),#25,.T.);
#706=ADVANCED_FACE('',(#636),#52,.T.);
#707=ADVANCED_FACE('',(#637),#26,.T.);
#708=ADVANCED_FACE('',(#638),#53,.T.);
#709=ADVANCED_FACE('',(#639),#27,.T.);
#710=ADVANCED_FACE('',(#640),#681,.T.);
#711=ADVANCED_FACE('',(#641),#54,.F.);
#712=ADVANCED_FACE('',(#642),#682,.T.);
#713=ADVANCED_FACE('',(#643),#55,.F.);
#714=ADVANCED_FACE('',(#644),#683,.F.);
#715=ADVANCED_FACE('',(#645),#56,.F.);
#716=ADVANCED_FACE('',(#646),#57,.F.);
#717=ADVANCED_FACE('',(#647,#648),#18,.F.);
#718=ADVANCED_FACE('',(#649,#650),#58,.F.);
#719=ADVANCED_FACE('',(#651,#652),#19,.F.);
#720=ADVANCED_FACE('',(#653,#654),#59,.F.);
#721=ADVANCED_FACE('',(#655,#656),#20,.F.);
#722=ADVANCED_FACE('',(#657,#658),#60,.F.);
#723=ADVANCED_FACE('',(#659,#660),#21,.F.);
#724=ADVANCED_FACE('',(#661,#662),#61,.F.);
#725=ADVANCED_FACE('',(#663,#664),#22,.F.);
#726=ADVANCED_FACE('',(#665,#666),#62,.F.);
#727=ADVANCED_FACE('',(#667,#668),#23,.F.);
#728=ADVANCED_FACE('',(#669,#670),#63,.F.);
#729=CLOSED_SHELL('',(#684,#685,#686,#687,#688,#689,#690,#691,#692,#693,
#694,#695,#696,#697,#698,#699,#700,#701,#702,#703,#704,#705,#706,#707,#708,
#709,#710,#711,#712,#713,#714,#715,#716,#717,#718,#719,#720,#721,#722,#723,
#724,#725,#726,#727,#728));
#730=STYLED_ITEM('',(#731),#738);
#731=PRESENTATION_STYLE_ASSIGNMENT((#732));
#732=SURFACE_STYLE_USAGE(.BOTH.,#733);
#733=SURFACE_SIDE_STYLE('',(#734));
#734=SURFACE_STYLE_FILL_AREA(#735);
#735=FILL_AREA_STYLE('',(#736));
#736=FILL_AREA_STYLE_COLOUR('',#737);
#737=COLOUR_RGB('',0.231372549019608,0.380392156862745,0.705882352941177);
#738=MANIFOLD_SOLID_BREP('Part 3',#729);
#739=SHAPE_DEFINITION_REPRESENTATION(#1341,#740);
#740=SHAPE_REPRESENTATION('Part 3',(#741),#1336);
#741=AXIS2_PLACEMENT_3D('',#1046,#825,#826);
#742=AXIS2_PLACEMENT_3D('',#1047,#827,#828);
#743=AXIS2_PLACEMENT_3D('',#1048,#829,#830);
#744=AXIS2_PLACEMENT_3D('',#1061,#836,#837);
#745=AXIS2_PLACEMENT_3D('',#1065,#839,#840);
#746=AXIS2_PLACEMENT_3D('',#1069,#842,#843);
#747=AXIS2_PLACEMENT_3D('',#1072,#845,#846);
#748=AXIS2_PLACEMENT_3D('',#1081,#851,#852);
#749=AXIS2_PLACEMENT_3D('',#1090,#857,#858);
#750=AXIS2_PLACEMENT_3D('',#1099,#863,#864);
#751=AXIS2_PLACEMENT_3D('',#1102,#866,#867);
#752=AXIS2_PLACEMENT_3D('',#1106,#869,#870);
#753=AXIS2_PLACEMENT_3D('',#1110,#872,#873);
#754=AXIS2_PLACEMENT_3D('',#1114,#875,#876);
#755=AXIS2_PLACEMENT_3D('',#1121,#880,#881);
#756=AXIS2_PLACEMENT_3D('',#1127,#885,#886);
#757=AXIS2_PLACEMENT_3D('',#1130,#889,#890);
#758=AXIS2_PLACEMENT_3D('',#1139,#895,#896);
#759=AXIS2_PLACEMENT_3D('',#1156,#905,#906);
#760=AXIS2_PLACEMENT_3D('',#1157,#907,#908);
#761=AXIS2_PLACEMENT_3D('',#1159,#909,#910);
#762=AXIS2_PLACEMENT_3D('',#1161,#911,#912);
#763=AXIS2_PLACEMENT_3D('',#1163,#913,#914);
#764=AXIS2_PLACEMENT_3D('',#1165,#915,#916);
#765=AXIS2_PLACEMENT_3D('',#1167,#917,#918);
#766=AXIS2_PLACEMENT_3D('',#1171,#921,#922);
#767=AXIS2_PLACEMENT_3D('',#1172,#923,#924);
#768=AXIS2_PLACEMENT_3D('',#1173,#925,#926);
#769=AXIS2_PLACEMENT_3D('',#1174,#927,#928);
#770=AXIS2_PLACEMENT_3D('',#1175,#929,#930);
#771=AXIS2_PLACEMENT_3D('',#1176,#931,#932);
#772=AXIS2_PLACEMENT_3D('',#1177,#933,#934);
#773=AXIS2_PLACEMENT_3D('',#1178,#935,#936);
#774=AXIS2_PLACEMENT_3D('',#1179,#937,#938);
#775=AXIS2_PLACEMENT_3D('',#1180,#939,#940);
#776=AXIS2_PLACEMENT_3D('',#1181,#941,#942);
#777=AXIS2_PLACEMENT_3D('',#1182,#943,#944);
#778=AXIS2_PLACEMENT_3D('',#1183,#945,#946);
#779=AXIS2_PLACEMENT_3D('',#1184,#947,#948);
#780=AXIS2_PLACEMENT_3D('',#1185,#949,#950);
#781=AXIS2_PLACEMENT_3D('',#1186,#951,#952);
#782=AXIS2_PLACEMENT_3D('',#1187,#953,#954);
#783=AXIS2_PLACEMENT_3D('',#1188,#955,#956);
#784=AXIS2_PLACEMENT_3D('',#1190,#957,#958);
#785=AXIS2_PLACEMENT_3D('',#1191,#959,#960);
#786=AXIS2_PLACEMENT_3D('',#1192,#961,#962);
#787=AXIS2_PLACEMENT_3D('',#1195,#964,#965);
#788=AXIS2_PLACEMENT_3D('',#1196,#966,#967);
#789=AXIS2_PLACEMENT_3D('',#1197,#968,#969);
#790=AXIS2_PLACEMENT_3D('',#1198,#970,#971);
#791=AXIS2_PLACEMENT_3D('',#1199,#972,#973);
#792=AXIS2_PLACEMENT_3D('',#1200,#974,#975);
#793=AXIS2_PLACEMENT_3D('',#1201,#976,#977);
#794=AXIS2_PLACEMENT_3D('',#1223,#978,#979);
#795=AXIS2_PLACEMENT_3D('',#1224,#980,#981);
#796=AXIS2_PLACEMENT_3D('',#1246,#982,#983);
#797=AXIS2_PLACEMENT_3D('',#1247,#984,#985);
#798=AXIS2_PLACEMENT_3D('',#1269,#986,#987);
#799=AXIS2_PLACEMENT_3D('',#1270,#988,#989);
#800=AXIS2_PLACEMENT_3D('',#1292,#990,#991);
#801=AXIS2_PLACEMENT_3D('',#1295,#994,#995);
#802=AXIS2_PLACEMENT_3D('',#1297,#997,#998);
#803=AXIS2_PLACEMENT_3D('',#1299,#1000,#1001);
#804=AXIS2_PLACEMENT_3D('',#1301,#1003,#1004);
#805=AXIS2_PLACEMENT_3D('',#1303,#1006,#1007);
#806=AXIS2_PLACEMENT_3D('',#1304,#1008,#1009);
#807=AXIS2_PLACEMENT_3D('',#1305,#1010,#1011);
#808=AXIS2_PLACEMENT_3D('',#1307,#1012,#1013);
#809=AXIS2_PLACEMENT_3D('',#1309,#1014,#1015);
#810=AXIS2_PLACEMENT_3D('',#1310,#1016,#1017);
#811=AXIS2_PLACEMENT_3D('',#1312,#1018,#1019);
#812=AXIS2_PLACEMENT_3D('',#1314,#1020,#1021);
#813=AXIS2_PLACEMENT_3D('',#1315,#1022,#1023);
#814=AXIS2_PLACEMENT_3D('',#1317,#1024,#1025);
#815=AXIS2_PLACEMENT_3D('',#1319,#1026,#1027);
#816=AXIS2_PLACEMENT_3D('',#1320,#1028,#1029);
#817=AXIS2_PLACEMENT_3D('',#1322,#1030,#1031);
#818=AXIS2_PLACEMENT_3D('',#1324,#1032,#1033);
#819=AXIS2_PLACEMENT_3D('',#1325,#1034,#1035);
#820=AXIS2_PLACEMENT_3D('',#1327,#1036,#1037);
#821=AXIS2_PLACEMENT_3D('',#1329,#1038,#1039);
#822=AXIS2_PLACEMENT_3D('',#1330,#1040,#1041);
#823=AXIS2_PLACEMENT_3D('',#1332,#1042,#1043);
#824=AXIS2_PLACEMENT_3D('',#1334,#1044,#1045);
#825=DIRECTION('',(0.,0.,1.));
#826=DIRECTION('',(1.,0.,0.));
#827=DIRECTION('',(0.,1.,0.));
#828=DIRECTION('',(0.,0.,1.));
#829=DIRECTION('',(0.,1.,0.));
#830=DIRECTION('',(0.,0.,1.));
#831=DIRECTION('',(1.,0.,0.));
#832=DIRECTION('',(0.,0.,-1.));
#833=DIRECTION('',(1.,0.,0.));
#834=DIRECTION('',(0.,0.,-1.));
#835=DIRECTION('',(1.,0.,0.));
#836=DIRECTION('',(0.,1.,0.));
#837=DIRECTION('',(0.,0.,1.));
#838=DIRECTION('',(0.,0.,-1.));
#839=DIRECTION('',(0.,1.,0.));
#840=DIRECTION('',(0.,0.,1.));
#841=DIRECTION('',(-1.,0.,0.));
#842=DIRECTION('',(0.,1.,0.));
#843=DIRECTION('',(0.,0.,1.));
#844=DIRECTION('',(0.,0.,-1.));
#845=DIRECTION('',(1.,-1.4557120078127E-16,0.));
#846=DIRECTION('',(1.4557120078127E-16,1.,0.));
#847=DIRECTION('',(-1.4557120078127E-16,-1.,0.));
#848=DIRECTION('',(0.,0.,-1.));
#849=DIRECTION('',(-1.4557120078127E-16,-1.,0.));
#850=DIRECTION('',(0.,0.,-1.));
#851=DIRECTION('',(0.,1.,0.));
#852=DIRECTION('',(0.,0.,1.));
#853=DIRECTION('',(1.,0.,0.));
#854=DIRECTION('',(0.,0.,-1.));
#855=DIRECTION('',(1.,0.,0.));
#856=DIRECTION('',(0.,0.,-1.));
#857=DIRECTION('',(1.,0.,0.));
#858=DIRECTION('',(0.,0.,-1.));
#859=DIRECTION('',(0.,0.,-1.));
#860=DIRECTION('',(0.,-1.,0.));
#861=DIRECTION('',(0.,0.,-1.));
#862=DIRECTION('',(0.,-1.,0.));
#863=DIRECTION('',(-1.73472347597681E-16,1.,0.));
#864=DIRECTION('',(-1.,-1.73472347597681E-16,0.));
#865=DIRECTION('',(1.,1.73472347597681E-16,0.));
#866=DIRECTION('',(-1.73472347597681E-16,1.,0.));
#867=DIRECTION('',(-1.,-1.73472347597681E-16,0.));
#868=DIRECTION('',(0.,0.,-1.));
#869=DIRECTION('',(-1.73472347597681E-16,1.,0.));
#870=DIRECTION('',(-1.,-1.73472347597681E-16,0.));
#871=DIRECTION('',(-1.,-1.73472347597681E-16,0.));
#872=DIRECTION('',(-1.73472347597681E-16,1.,0.));
#873=DIRECTION('',(-1.,-1.73472347597681E-16,0.));
#874=DIRECTION('',(0.,0.,-1.));
#875=DIRECTION('',(-1.73472347597681E-16,1.,0.));
#876=DIRECTION('',(-1.,-1.73472347597681E-16,0.));
#877=DIRECTION('',(1.,1.73472347597681E-16,0.));
#878=DIRECTION('',(0.,0.,-1.));
#879=DIRECTION('',(1.,1.73472347597681E-16,0.));
#880=DIRECTION('',(1.,0.,0.));
#881=DIRECTION('',(0.,0.,-1.));
#882=DIRECTION('',(0.,0.,-1.));
#883=DIRECTION('',(0.,-1.,0.));
#884=DIRECTION('',(0.,-1.,0.));
#885=DIRECTION('',(-1.73472347597681E-16,1.,0.));
#886=DIRECTION('',(-1.,-1.73472347597681E-16,0.));
#887=DIRECTION('',(1.,1.73472347597681E-16,0.));
#888=DIRECTION('',(1.,1.73472347597681E-16,0.));
#889=DIRECTION('',(1.,-1.4557120078127E-16,0.));
#890=DIRECTION('',(1.4557120078127E-16,1.,0.));
#891=DIRECTION('',(-1.4557120078127E-16,-1.,0.));
#892=DIRECTION('',(0.,0.,-1.));
#893=DIRECTION('',(-1.4557120078127E-16,-1.,0.));
#894=DIRECTION('',(0.,0.,-1.));
#895=DIRECTION('',(0.,0.,1.));
#896=DIRECTION('',(1.,0.,0.));
#897=DIRECTION('',(0.,-1.,0.));
#898=DIRECTION('',(1.,0.,0.));
#899=DIRECTION('',(-1.4557120078127E-16,-1.,0.));
#900=DIRECTION('',(1.,0.,0.));
#901=DIRECTION('',(-1.4557120078127E-16,-1.,0.));
#902=DIRECTION('',(1.,0.,0.));
#903=DIRECTION('',(0.,-1.,0.));
#904=DIRECTION('',(1.,1.73472347597681E-16,0.));
#905=DIRECTION('',(0.,0.,1.));
#906=DIRECTION('',(1.,0.,0.));
#907=DIRECTION('',(0.,0.,1.));
#908=DIRECTION('',(1.,0.,0.));
#909=DIRECTION('',(0.,0.,1.));
#910=DIRECTION('',(1.,0.,0.));
#911=DIRECTION('',(0.,0.,1.));
#912=DIRECTION('',(1.,0.,0.));
#913=DIRECTION('',(0.,0.,1.));
#914=DIRECTION('',(1.,0.,0.));
#915=DIRECTION('',(0.,0.,1.));
#916=DIRECTION('',(1.,0.,0.));
#917=DIRECTION('',(0.,0.,1.));
#918=DIRECTION('',(1.,0.,0.));
#919=DIRECTION('',(0.,1.,0.));
#920=DIRECTION('',(0.,1.,0.));
#921=DIRECTION('',(0.,0.,1.));
#922=DIRECTION('',(1.,0.,0.));
#923=DIRECTION('',(0.,0.,1.));
#924=DIRECTION('',(1.,0.,0.));
#925=DIRECTION('',(0.,0.,1.));
#926=DIRECTION('',(1.,0.,0.));
#927=DIRECTION('',(0.,0.,1.));
#928=DIRECTION('',(1.,0.,0.));
#929=DIRECTION('',(-1.,0.,0.));
#930=DIRECTION('',(0.,0.,1.));
#931=DIRECTION('',(0.928476690885259,0.371390676354103,0.));
#932=DIRECTION('',(0.371390676354103,-0.928476690885259,0.));
#933=DIRECTION('',(0.928476690885259,-0.371390676354103,0.));
#934=DIRECTION('',(0.371390676354103,0.928476690885259,0.));
#935=DIRECTION('',(1.4557120078127E-16,1.,0.));
#936=DIRECTION('',(-1.,1.4557120078127E-16,0.));
#937=DIRECTION('',(-0.371390676354103,-0.928476690885259,0.));
#938=DIRECTION('',(0.928476690885259,-0.371390676354103,0.));
#939=DIRECTION('',(0.371390676354103,-0.928476690885259,0.));
#940=DIRECTION('',(0.928476690885259,0.371390676354103,0.));
#941=DIRECTION('',(-1.4557120078127E-16,-1.,0.));
#942=DIRECTION('',(1.,-1.4557120078127E-16,0.));
#943=DIRECTION('',(-0.371390676354103,0.928476690885259,0.));
#944=DIRECTION('',(0.928476690885259,0.371390676354103,0.));
#945=DIRECTION('',(0.371390676354103,0.928476690885259,0.));
#946=DIRECTION('',(0.928476690885259,-0.371390676354103,0.));
#947=DIRECTION('',(1.,1.73472347597681E-16,0.));
#948=DIRECTION('',(-1.73472347597681E-16,1.,0.));
#949=DIRECTION('',(0.707106781186548,0.707106781186548,0.));
#950=DIRECTION('',(0.707106781186548,-0.707106781186548,0.));
#951=DIRECTION('',(0.707106781186548,-0.707106781186548,0.));
#952=DIRECTION('',(0.707106781186548,0.707106781186548,0.));
#953=DIRECTION('',(0.,-1.,0.));
#954=DIRECTION('',(0.,0.,-1.));
#955=DIRECTION('',(0.707106781186548,-0.707106781186548,0.));
#956=DIRECTION('',(-0.707106781186548,-0.707106781186548,0.));
#957=DIRECTION('',(-0.707106781186548,-0.707106781186548,0.));
#958=DIRECTION('',(-0.707106781186548,0.707106781186548,0.));
#959=DIRECTION('',(1.,0.,0.));
#960=DIRECTION('',(0.,0.,-1.));
#961=DIRECTION('',(-0.928476690885259,-0.371390676354103,0.));
#962=DIRECTION('',(0.371390676354103,-0.928476690885259,0.));
#963=DIRECTION('',(1.,0.,0.));
#964=DIRECTION('',(0.707106781186548,0.707106781186548,0.));
#965=DIRECTION('',(-0.707106781186548,0.707106781186548,0.));
#966=DIRECTION('',(-0.928476690885259,0.371390676354103,0.));
#967=DIRECTION('',(0.371390676354103,0.928476690885259,0.));
#968=DIRECTION('',(0.,1.,0.));
#969=DIRECTION('',(0.,0.,1.));
#970=DIRECTION('',(-0.707106781186548,0.707106781186548,0.));
#971=DIRECTION('',(-0.707106781186548,-0.707106781186548,0.));
#972=DIRECTION('',(-1.,-1.73472347597681E-16,0.));
#973=DIRECTION('',(1.73472347597681E-16,-1.,0.));
#974=DIRECTION('',(0.,0.,1.));
#975=DIRECTION('',(1.,0.,0.));
#976=DIRECTION('',(0.,0.,1.));
#977=DIRECTION('',(1.,0.,0.));
#978=DIRECTION('',(0.,0.,-1.));
#979=DIRECTION('',(-1.,0.,0.));
#980=DIRECTION('',(0.,0.,1.));
#981=DIRECTION('',(1.,0.,0.));
#982=DIRECTION('',(0.,0.,1.));
#983=DIRECTION('',(1.,0.,0.));
#984=DIRECTION('',(0.,0.,1.));
#985=DIRECTION('',(1.,0.,0.));
#986=DIRECTION('',(0.,0.,-1.));
#987=DIRECTION('',(-1.,0.,0.));
#988=DIRECTION('',(0.,0.,1.));
#989=DIRECTION('',(1.,0.,0.));
#990=DIRECTION('',(1.,0.,0.));
#991=DIRECTION('',(0.,0.,-1.));
#992=DIRECTION('',(0.,1.,0.));
#993=DIRECTION('',(0.,1.,0.));
#994=DIRECTION('',(0.,1.,0.));
#995=DIRECTION('',(0.,0.,1.));
#996=DIRECTION('',(0.,1.,0.));
#997=DIRECTION('',(0.,0.,-1.));
#998=DIRECTION('',(-1.,0.,0.));
#999=DIRECTION('',(0.,1.,0.));
#1000=DIRECTION('',(0.,1.,0.));
#1001=DIRECTION('',(0.,0.,1.));
#1002=DIRECTION('',(0.,1.,0.));
#1003=DIRECTION('',(1.,0.,0.));
#1004=DIRECTION('',(0.,0.,-1.));
#1005=DIRECTION('',(0.,1.,0.));
#1006=DIRECTION('',(0.,1.,0.));
#1007=DIRECTION('',(0.,0.,1.));
#1008=DIRECTION('',(0.,1.,0.));
#1009=DIRECTION('',(0.,0.,1.));
#1010=DIRECTION('',(0.,0.,-1.));
#1011=DIRECTION('',(-1.,0.,0.));
#1012=DIRECTION('',(0.,0.,1.));
#1013=DIRECTION('',(1.,0.,0.));
#1014=DIRECTION('',(0.,0.,1.));
#1015=DIRECTION('',(1.,0.,0.));
#1016=DIRECTION('',(0.,0.,-1.));
#1017=DIRECTION('',(-1.,0.,0.));
#1018=DIRECTION('',(0.,0.,1.));
#1019=DIRECTION('',(1.,0.,0.));
#1020=DIRECTION('',(0.,0.,1.));
#1021=DIRECTION('',(1.,0.,0.));
#1022=DIRECTION('',(0.,0.,-1.));
#1023=DIRECTION('',(-1.,0.,0.));
#1024=DIRECTION('',(0.,0.,1.));
#1025=DIRECTION('',(1.,0.,0.));
#1026=DIRECTION('',(0.,0.,1.));
#1027=DIRECTION('',(1.,0.,0.));
#1028=DIRECTION('',(0.,0.,-1.));
#1029=DIRECTION('',(-1.,0.,0.));
#1030=DIRECTION('',(0.,0.,1.));
#1031=DIRECTION('',(1.,0.,0.));
#1032=DIRECTION('',(0.,0.,1.));
#1033=DIRECTION('',(1.,0.,0.));
#1034=DIRECTION('',(0.,0.,-1.));
#1035=DIRECTION('',(-1.,0.,0.));
#1036=DIRECTION('',(0.,0.,1.));
#1037=DIRECTION('',(1.,0.,0.));
#1038=DIRECTION('',(0.,0.,1.));
#1039=DIRECTION('',(1.,0.,0.));
#1040=DIRECTION('',(0.,0.,-1.));
#1041=DIRECTION('',(-1.,0.,0.));
#1042=DIRECTION('',(0.,0.,1.));
#1043=DIRECTION('',(1.,0.,0.));
#1044=DIRECTION('',(0.,0.,1.));
#1045=DIRECTION('',(1.,0.,0.));
#1046=CARTESIAN_POINT('',(0.,0.,0.));
#1047=CARTESIAN_POINT('',(6.93889390390723E-18,0.05375,0.0374));
#1048=CARTESIAN_POINT('',(-0.0359062922767797,0.05375,0.026));
#1049=CARTESIAN_POINT('',(-0.0378141706796136,0.05375,0.0254));
#1050=CARTESIAN_POINT('',(-0.0379062922767797,0.05375,0.026));
#1051=CARTESIAN_POINT('',(6.93889390390723E-18,0.05375,0.0254));
#1052=CARTESIAN_POINT('',(-0.0485,0.05375,0.0254));
#1053=CARTESIAN_POINT('',(-0.0485,0.05375,0.0349));
#1054=CARTESIAN_POINT('',(-0.0485,0.05375,0.0349));
#1055=CARTESIAN_POINT('',(6.93889390390723E-18,0.05375,0.0349));
#1056=CARTESIAN_POINT('',(0.0485,0.05375,0.0349));
#1057=CARTESIAN_POINT('',(0.0485,0.05375,0.0374));
#1058=CARTESIAN_POINT('',(0.0485,0.05375,0.0254));
#1059=CARTESIAN_POINT('',(6.93889390390723E-18,0.05375,0.0254));
#1060=CARTESIAN_POINT('',(-0.0220760987604419,0.05375,0.0254));
#1061=CARTESIAN_POINT('',(-0.0239839771632758,0.05375,0.026));
#1062=CARTESIAN_POINT('',(-0.0219839771632758,0.05375,0.026));
#1063=CARTESIAN_POINT('',(-0.0219839771632758,0.05375,0.0266897921785132));
#1064=CARTESIAN_POINT('',(-0.0219839771632758,0.05375,0.0273795843570263));
#1065=CARTESIAN_POINT('',(-0.0239839771632758,0.05375,0.0273795843570263));
#1066=CARTESIAN_POINT('',(-0.0239839771632758,0.05375,0.0293795843570263));
#1067=CARTESIAN_POINT('',(-0.0299451347200278,0.05375,0.0293795843570263));
#1068=CARTESIAN_POINT('',(-0.0359062922767797,0.05375,0.0293795843570263));
#1069=CARTESIAN_POINT('',(-0.0359062922767797,0.05375,0.0273795843570263));
#1070=CARTESIAN_POINT('',(-0.0379062922767797,0.05375,0.0273795843570263));
#1071=CARTESIAN_POINT('',(-0.0379062922767797,0.05375,0.0266897921785132));
#1072=CARTESIAN_POINT('',(-0.05,-0.01775,0.0374));
#1073=CARTESIAN_POINT('',(-0.05,0.05375,0.0349));
#1074=CARTESIAN_POINT('',(-0.05,-0.08775,0.0349));
#1075=CARTESIAN_POINT('',(-0.05,0.05225,0.0349));
#1076=CARTESIAN_POINT('',(-0.05,0.05225,0.0254));
#1077=CARTESIAN_POINT('',(-0.05,0.05225,0.0254));
#1078=CARTESIAN_POINT('',(-0.05,-0.01775,0.0254));
#1079=CARTESIAN_POINT('',(-0.05,-0.08775,0.0254));
#1080=CARTESIAN_POINT('',(-0.05,-0.08775,0.0374));
#1081=CARTESIAN_POINT('',(-1.38777878078145E-17,-0.08925,0.0374));
#1082=CARTESIAN_POINT('',(-1.38777878078145E-17,-0.08925,0.0254));
#1083=CARTESIAN_POINT('',(-0.0485,-0.08925,0.0254));
#1084=CARTESIAN_POINT('',(0.0485,-0.08925,0.0254));
#1085=CARTESIAN_POINT('',(0.0485,-0.08925,0.0349));
#1086=CARTESIAN_POINT('',(0.0485,-0.08925,0.0349));
#1087=CARTESIAN_POINT('',(-0.05,-0.08925,0.0349));
#1088=CARTESIAN_POINT('',(-0.0485,-0.08925,0.0349));
#1089=CARTESIAN_POINT('',(-0.0485,-0.08925,0.0374));
#1090=CARTESIAN_POINT('',(-0.04,5.00000000000014E-5,0.0374));
#1091=CARTESIAN_POINT('',(-0.04,0.05055,0.0374));
#1092=CARTESIAN_POINT('',(-0.04,0.05055,0.0349));
#1093=CARTESIAN_POINT('',(-0.04,0.05055,0.0254));
#1094=CARTESIAN_POINT('',(-0.04,5.00000000000014E-5,0.0349));
#1095=CARTESIAN_POINT('',(-0.04,-0.05045,0.0349));
#1096=CARTESIAN_POINT('',(-0.04,-0.05045,0.0374));
#1097=CARTESIAN_POINT('',(-0.04,-0.05045,0.0254));
#1098=CARTESIAN_POINT('',(-0.04,5.00000000000014E-5,0.0254));
#1099=CARTESIAN_POINT('',(-7.63278329429795E-17,0.05055,0.0374));
#1100=CARTESIAN_POINT('',(-7.63278329429795E-17,0.05055,0.0254));
#1101=CARTESIAN_POINT('',(-0.0378141706796136,0.05055,0.0254));
#1102=CARTESIAN_POINT('',(-0.0359062922767797,0.05055,0.026));
#1103=CARTESIAN_POINT('',(-0.0379062922767797,0.05055,0.026));
#1104=CARTESIAN_POINT('',(-0.0379062922767797,0.05055,0.0374));
#1105=CARTESIAN_POINT('',(-0.0379062922767797,0.05055,0.0273795843570263));
#1106=CARTESIAN_POINT('',(-0.0359062922767797,0.05055,0.0273795843570263));
#1107=CARTESIAN_POINT('',(-0.0359062922767797,0.05055,0.0293795843570263));
#1108=CARTESIAN_POINT('',(-7.63278329429795E-17,0.05055,0.0293795843570263));
#1109=CARTESIAN_POINT('',(-0.0239839771632758,0.05055,0.0293795843570263));
#1110=CARTESIAN_POINT('',(-0.0239839771632758,0.05055,0.0273795843570263));
#1111=CARTESIAN_POINT('',(-0.0219839771632758,0.05055,0.0273795843570263));
#1112=CARTESIAN_POINT('',(-0.0219839771632758,0.05055,0.0374));
#1113=CARTESIAN_POINT('',(-0.0219839771632758,0.05055,0.026));
#1114=CARTESIAN_POINT('',(-0.0239839771632758,0.05055,0.026));
#1115=CARTESIAN_POINT('',(-0.0220760987604419,0.05055,0.0254));
#1116=CARTESIAN_POINT('',(-7.63278329429795E-17,0.05055,0.0254));
#1117=CARTESIAN_POINT('',(0.04,0.05055,0.0254));
#1118=CARTESIAN_POINT('',(0.04,0.05055,0.0374));
#1119=CARTESIAN_POINT('',(0.04,0.05055,0.0349));
#1120=CARTESIAN_POINT('',(-0.04,0.05055,0.0349));
#1121=CARTESIAN_POINT('',(0.04,5.00000000000292E-5,0.0374));
#1122=CARTESIAN_POINT('',(0.04,-0.05045,0.0374));
#1123=CARTESIAN_POINT('',(0.04,-0.05045,0.0349));
#1124=CARTESIAN_POINT('',(0.04,-0.05045,0.0254));
#1125=CARTESIAN_POINT('',(0.04,0.05055,0.0349));
#1126=CARTESIAN_POINT('',(0.04,5.00000000000292E-5,0.0254));
#1127=CARTESIAN_POINT('',(-6.24500451351651E-17,-0.05045,0.0374));
#1128=CARTESIAN_POINT('',(-6.24500451351651E-17,-0.05045,0.0349));
#1129=CARTESIAN_POINT('',(-6.24500451351651E-17,-0.05045,0.0254));
#1130=CARTESIAN_POINT('',(0.05,-0.01775,0.0374));
#1131=CARTESIAN_POINT('',(0.05,-0.01775,0.0254));
#1132=CARTESIAN_POINT('',(0.05,0.05225,0.0254));
#1133=CARTESIAN_POINT('',(0.05,-0.08775,0.0254));
#1134=CARTESIAN_POINT('',(0.05,0.05225,0.0374));
#1135=CARTESIAN_POINT('',(0.05,0.05225,0.0349));
#1136=CARTESIAN_POINT('',(0.05,-0.01775,0.0349));
#1137=CARTESIAN_POINT('',(0.05,-0.08775,0.0349));
#1138=CARTESIAN_POINT('',(0.05,-0.08775,0.0254));
#1139=CARTESIAN_POINT('',(0.,-0.01775,0.0374));
#1140=CARTESIAN_POINT('',(-0.0425,-0.01775,0.0374));
#1141=CARTESIAN_POINT('',(-0.0425,-0.05295,0.0374));
#1142=CARTESIAN_POINT('',(-0.0425,0.05125,0.0374));
#1143=CARTESIAN_POINT('',(0.,0.05125,0.0374));
#1144=CARTESIAN_POINT('',(-0.0475,0.05125,0.0374));
#1145=CARTESIAN_POINT('',(-0.0475,-0.08925,0.0374));
#1146=CARTESIAN_POINT('',(-0.0475,-0.08675,0.0374));
#1147=CARTESIAN_POINT('',(0.05,-0.08675,0.0374));
#1148=CARTESIAN_POINT('',(0.0475,-0.08675,0.0374));
#1149=CARTESIAN_POINT('',(0.0475,-0.01775,0.0374));
#1150=CARTESIAN_POINT('',(0.0475,0.05125,0.0374));
#1151=CARTESIAN_POINT('',(0.,0.05125,0.0374));
#1152=CARTESIAN_POINT('',(0.0425,0.05125,0.0374));
#1153=CARTESIAN_POINT('',(0.0425,-0.05045,0.0374));
#1154=CARTESIAN_POINT('',(0.0425,-0.05295,0.0374));
#1155=CARTESIAN_POINT('',(6.10622663543837E-18,-0.05295,0.0374));
#1156=CARTESIAN_POINT('',(0.,-0.01775,0.0254));
#1157=CARTESIAN_POINT('',(0.04575,0.05025,0.0254));
#1158=CARTESIAN_POINT('',(0.04785,0.05025,0.0254));
#1159=CARTESIAN_POINT('',(0.04575,-0.052,0.0254));
#1160=CARTESIAN_POINT('',(0.04785,-0.052,0.0254));
#1161=CARTESIAN_POINT('',(0.04575,-0.0833841518109544,0.0254));
#1162=CARTESIAN_POINT('',(0.04785,-0.0833841518109544,0.0254));
#1163=CARTESIAN_POINT('',(-0.04575,-0.052,0.0254));
#1164=CARTESIAN_POINT('',(-0.04365,-0.052,0.0254));
#1165=CARTESIAN_POINT('',(-0.04575,-0.0833841518109544,0.0254));
#1166=CARTESIAN_POINT('',(-0.04365,-0.0833841518109544,0.0254));
#1167=CARTESIAN_POINT('',(-0.04575,0.05025,0.0254));
#1168=CARTESIAN_POINT('',(-0.04365,0.05025,0.0254));
#1169=CARTESIAN_POINT('',(-0.0378141706796136,0.05045,0.0254));
#1170=CARTESIAN_POINT('',(-0.0220760987604419,0.05045,0.0254));
#1171=CARTESIAN_POINT('',(0.0485,0.05225,0.0254));
#1172=CARTESIAN_POINT('',(0.0485,-0.08775,0.0254));
#1173=CARTESIAN_POINT('',(-0.0485,-0.08775,0.0254));
#1174=CARTESIAN_POINT('',(-0.0485,0.05225,0.0254));
#1175=CARTESIAN_POINT('',(0.,-0.08675,0.0349));
#1176=CARTESIAN_POINT('',(0.0475,-0.08675,0.0349));
#1177=CARTESIAN_POINT('',(-0.0475,-0.08675,0.0349));
#1178=CARTESIAN_POINT('',(-0.0475,-0.01775,0.0349));
#1179=CARTESIAN_POINT('',(-0.0475,0.05125,0.0349));
#1180=CARTESIAN_POINT('',(-0.0475,-0.08675,0.0349));
#1181=CARTESIAN_POINT('',(0.0475,-0.01775,0.0349));
#1182=CARTESIAN_POINT('',(0.0475,0.05125,0.0349));
#1183=CARTESIAN_POINT('',(0.0475,-0.08675,0.0349));
#1184=CARTESIAN_POINT('',(-6.20163642661709E-17,-0.05295,0.0349));
#1185=CARTESIAN_POINT('',(0.0425,-0.05295,0.0349));
#1186=CARTESIAN_POINT('',(-0.0425,-0.05295,0.0349));
#1187=CARTESIAN_POINT('',(-0.0425,5.00000000000014E-5,0.0349));
#1188=CARTESIAN_POINT('',(-0.0425,0.05125,0.0349));
#1189=CARTESIAN_POINT('',(-0.0416,0.05215,0.0372323807579381));
#1190=CARTESIAN_POINT('',(-0.0425,0.05305,0.0349));
#1191=CARTESIAN_POINT('',(6.93889390390723E-18,0.05125,0.0349));
#1192=CARTESIAN_POINT('',(-0.0475,0.05125,0.0349));
#1193=CARTESIAN_POINT('',(1.04083408558608E-17,0.05215,0.0372323807579381));
#1194=CARTESIAN_POINT('',(0.0416,0.05215,0.0372323807579381));
#1195=CARTESIAN_POINT('',(0.0425,0.05125,0.0349));
#1196=CARTESIAN_POINT('',(0.0475,0.05125,0.0349));
#1197=CARTESIAN_POINT('',(0.0425,-0.01775,0.0349));
#1198=CARTESIAN_POINT('',(0.0425,0.05305,0.0349));
#1199=CARTESIAN_POINT('',(-1.22818422099158E-17,0.05305,0.0349));
#1200=CARTESIAN_POINT('',(-0.0485,0.05225,0.0374));
#1201=CARTESIAN_POINT('',(-0.0485,0.05225,0.0349));
#1202=CARTESIAN_POINT('',(-0.05,0.05225,0.0349));
#1203=CARTESIAN_POINT('',(-0.05,0.05375,0.0349));
#1204=CARTESIAN_POINT('',(-0.0485,0.05375,0.0349));
#1205=CARTESIAN_POINT('',(-0.05,0.0522499999999673,0.0352272493438328));
#1206=CARTESIAN_POINT('',(-0.0499999999988367,0.0537499999988332,0.0354235992118091));
#1207=CARTESIAN_POINT('',(-0.0484999999999673,0.05375,0.0352272493438328));
#1208=CARTESIAN_POINT('',(-0.0498698281042607,0.0521979312417195,0.0358815950971864));
#1209=CARTESIAN_POINT('',(-0.0497135977191266,0.0534635977191281,0.0363721774044806));
#1210=CARTESIAN_POINT('',(-0.0484479312417195,0.0536198281042607,0.0358815950971864));
#1211=CARTESIAN_POINT('',(-0.0493137946227567,0.0519755178490986,0.0367137946295748));
#1212=CARTESIAN_POINT('',(-0.0489410308552339,0.0526910308552336,0.037069426996265));
#1213=CARTESIAN_POINT('',(-0.0482255178490986,0.0530637946227567,0.0367137946295748));
#1214=CARTESIAN_POINT('',(-0.0484815951225105,0.0516426380490054,0.0372698281023127));
#1215=CARTESIAN_POINT('',(-0.048205386691398,0.0519553866913979,0.0373473800661511));
#1216=CARTESIAN_POINT('',(-0.0478926380490054,0.0522315951225105,0.0372698281023127));
#1217=CARTESIAN_POINT('',(-0.0478272492892886,0.0513808997157154,0.0374));
#1218=CARTESIAN_POINT('',(-0.0477290744615975,0.0514790744615978,0.0373998611566617));
#1219=CARTESIAN_POINT('',(-0.0476308997157154,0.0515772492892886,0.0374));
#1220=CARTESIAN_POINT('',(-0.0475,0.05125,0.0374));
#1221=CARTESIAN_POINT('',(-0.0475,0.05125,0.0374));
#1222=CARTESIAN_POINT('',(-0.0475,0.05125,0.0374));
#1223=CARTESIAN_POINT('',(0.0485,0.05225,0.0374));
#1224=CARTESIAN_POINT('',(0.0485,0.05225,0.0349));
#1225=CARTESIAN_POINT('',(0.0485,0.05375,0.0349));
#1226=CARTESIAN_POINT('',(0.05,0.05375,0.0349));
#1227=CARTESIAN_POINT('',(0.05,0.05225,0.0349));
#1228=CARTESIAN_POINT('',(0.0484999999999673,0.05375,0.0352272493438327));
#1229=CARTESIAN_POINT('',(0.0499999999988367,0.0537499999988332,0.0354235992118115));
#1230=CARTESIAN_POINT('',(0.05,0.0522499999999673,0.0352272493438345));
#1231=CARTESIAN_POINT('',(0.0484479312417195,0.0536198281042608,0.0358815950971865));
#1232=CARTESIAN_POINT('',(0.0497135977191266,0.0534635977191281,0.0363721774044796));
#1233=CARTESIAN_POINT('',(0.0498698281042608,0.0521979312417195,0.0358815950971856));
#1234=CARTESIAN_POINT('',(0.0482255178490986,0.0530637946227567,0.0367137946295747));
#1235=CARTESIAN_POINT('',(0.0489410308552339,0.0526910308552336,0.0370694269962652));
#1236=CARTESIAN_POINT('',(0.0493137946227567,0.0519755178490986,0.036713794629575));
#1237=CARTESIAN_POINT('',(0.0478926380490054,0.0522315951225105,0.0372698281023128));
#1238=CARTESIAN_POINT('',(0.048205386691398,0.0519553866913979,0.0373473800661511));
#1239=CARTESIAN_POINT('',(0.0484815951225105,0.0516426380490054,0.0372698281023127));
#1240=CARTESIAN_POINT('',(0.0476308997157154,0.0515772492892886,0.0374));
#1241=CARTESIAN_POINT('',(0.0477290744615975,0.0514790744615978,0.0373998611566617));
#1242=CARTESIAN_POINT('',(0.0478272492892886,0.0513808997157154,0.0374));
#1243=CARTESIAN_POINT('',(0.0475,0.05125,0.0374));
#1244=CARTESIAN_POINT('',(0.0475,0.05125,0.0374));
#1245=CARTESIAN_POINT('',(0.0475,0.05125,0.0374));
#1246=CARTESIAN_POINT('',(0.0485,-0.08775,0.0374));
#1247=CARTESIAN_POINT('',(0.0485,-0.08775,0.0349));
#1248=CARTESIAN_POINT('',(0.05,-0.08775,0.0349));
#1249=CARTESIAN_POINT('',(0.05,-0.08925,0.0349));
#1250=CARTESIAN_POINT('',(0.0485,-0.08925,0.0349));
#1251=CARTESIAN_POINT('',(0.05,-0.0877499999999673,0.0352272493438327));
#1252=CARTESIAN_POINT('',(0.0499999999988337,-0.0892499999988377,0.0354235992118091));
#1253=CARTESIAN_POINT('',(0.0484999999999673,-0.08925,0.0352272493438327));
#1254=CARTESIAN_POINT('',(0.0498698281042608,-0.0876979312417195,0.0358815950971865));
#1255=CARTESIAN_POINT('',(0.0497135977191278,-0.0889635977191261,0.0363721774044812));
#1256=CARTESIAN_POINT('',(0.0484479312417195,-0.0891198281042608,0.0358815950971865));
#1257=CARTESIAN_POINT('',(0.0493137946227568,-0.0874755178490986,0.0367137946295747));
#1258=CARTESIAN_POINT('',(0.0489410308552337,-0.0881910308552339,0.0370694269962648));
#1259=CARTESIAN_POINT('',(0.0482255178490986,-0.0885637946227567,0.0367137946295747));
#1260=CARTESIAN_POINT('',(0.0484815951225105,-0.0871426380490054,0.0372698281023127));
#1261=CARTESIAN_POINT('',(0.048205386691398,-0.0874553866913988,0.0373473800661512));
#1262=CARTESIAN_POINT('',(0.0478926380490054,-0.0877315951225106,0.0372698281023127));
#1263=CARTESIAN_POINT('',(0.0478272492892886,-0.0868808997157154,0.0374));
#1264=CARTESIAN_POINT('',(0.0477290744615975,-0.0869790744615954,0.0373998611566617));
#1265=CARTESIAN_POINT('',(0.0476308997157154,-0.0870772492892886,0.0374));
#1266=CARTESIAN_POINT('',(0.0475,-0.08675,0.0374));
#1267=CARTESIAN_POINT('',(0.0475,-0.08675,0.0374));
#1268=CARTESIAN_POINT('',(0.0475,-0.08675,0.0374));
#1269=CARTESIAN_POINT('',(-0.0485,-0.08775,0.0374));
#1270=CARTESIAN_POINT('',(-0.0485,-0.08775,0.0349));
#1271=CARTESIAN_POINT('',(-0.0485,-0.08925,0.0349));
#1272=CARTESIAN_POINT('',(-0.05,-0.08925,0.0349));
#1273=CARTESIAN_POINT('',(-0.05,-0.08775,0.0349));
#1274=CARTESIAN_POINT('',(-0.0484999999999673,-0.08925,0.0352272493438328));
#1275=CARTESIAN_POINT('',(-0.0499999999988337,-0.0892499999988377,0.0354235992118106));
#1276=CARTESIAN_POINT('',(-0.05,-0.0877499999999673,0.0352272493438347));
#1277=CARTESIAN_POINT('',(-0.0484479312417195,-0.0891198281042607,0.0358815950971864));
#1278=CARTESIAN_POINT('',(-0.0497135977191278,-0.0889635977191261,0.0363721774044805));
#1279=CARTESIAN_POINT('',(-0.0498698281042608,-0.0876979312417195,0.0358815950971855));
#1280=CARTESIAN_POINT('',(-0.0482255178490986,-0.0885637946227568,0.0367137946295748));
#1281=CARTESIAN_POINT('',(-0.0489410308552337,-0.0881910308552338,0.0370694269962649));
#1282=CARTESIAN_POINT('',(-0.0493137946227567,-0.0874755178490986,0.036713794629575));
#1283=CARTESIAN_POINT('',(-0.0478926380490054,-0.0877315951225105,0.0372698281023127));
#1284=CARTESIAN_POINT('',(-0.048205386691398,-0.0874553866913988,0.0373473800661512));
#1285=CARTESIAN_POINT('',(-0.0484815951225105,-0.0871426380490054,0.0372698281023127));
#1286=CARTESIAN_POINT('',(-0.0476308997157154,-0.0870772492892886,0.0374));
#1287=CARTESIAN_POINT('',(-0.0477290744615975,-0.0869790744615954,0.0373998611566617));
#1288=CARTESIAN_POINT('',(-0.0478272492892886,-0.0868808997157154,0.0374));
#1289=CARTESIAN_POINT('',(-0.0475,-0.08675,0.0374));
#1290=CARTESIAN_POINT('',(-0.0475,-0.08675,0.0374));
#1291=CARTESIAN_POINT('',(-0.0475,-0.08675,0.0374));
#1292=CARTESIAN_POINT('',(-0.0379062922767797,0.05045,0.0266897921785132));
#1293=CARTESIAN_POINT('',(-0.0379062922767797,0.05045,0.026));
#1294=CARTESIAN_POINT('',(-0.0379062922767797,0.05045,0.0273795843570263));
#1295=CARTESIAN_POINT('',(-0.0359062922767797,0.05045,0.0273795843570263));
#1296=CARTESIAN_POINT('',(-0.0359062922767797,0.05045,0.0293795843570263));
#1297=CARTESIAN_POINT('',(-0.0299451347200278,0.05045,0.0293795843570263));
#1298=CARTESIAN_POINT('',(-0.0239839771632758,0.05045,0.0293795843570263));
#1299=CARTESIAN_POINT('',(-0.0239839771632758,0.05045,0.0273795843570263));
#1300=CARTESIAN_POINT('',(-0.0219839771632758,0.05045,0.0273795843570263));
#1301=CARTESIAN_POINT('',(-0.0219839771632758,0.05045,0.0266897921785132));
#1302=CARTESIAN_POINT('',(-0.0219839771632758,0.05045,0.026));
#1303=CARTESIAN_POINT('',(-0.0359062922767797,0.05045,0.026));
#1304=CARTESIAN_POINT('',(-0.0239839771632758,0.05045,0.026));
#1305=CARTESIAN_POINT('',(-0.04575,0.05025,0.0314));
#1306=CARTESIAN_POINT('',(-0.04575,0.05025,0.0326618072999579));
#1307=CARTESIAN_POINT('',(-0.04575,0.05025,0.0314));
#1308=CARTESIAN_POINT('',(-0.04365,0.05025,0.0314));
#1309=CARTESIAN_POINT('',(-0.04575,0.05025,0.0254));
#1310=CARTESIAN_POINT('',(-0.04575,-0.0833841518109544,0.0314));
#1311=CARTESIAN_POINT('',(-0.04575,-0.0833841518109544,0.0326618072999579));
#1312=CARTESIAN_POINT('',(-0.04575,-0.0833841518109544,0.0314));
#1313=CARTESIAN_POINT('',(-0.04365,-0.0833841518109544,0.0314));
#1314=CARTESIAN_POINT('',(-0.04575,-0.0833841518109544,0.0254));
#1315=CARTESIAN_POINT('',(-0.04575,-0.052,0.0314));
#1316=CARTESIAN_POINT('',(-0.04575,-0.052,0.0326618072999579));
#1317=CARTESIAN_POINT('',(-0.04575,-0.052,0.0314));
#1318=CARTESIAN_POINT('',(-0.04365,-0.052,0.0314));
#1319=CARTESIAN_POINT('',(-0.04575,-0.052,0.0254));
#1320=CARTESIAN_POINT('',(0.04575,-0.0833841518109544,0.0314));
#1321=CARTESIAN_POINT('',(0.04575,-0.0833841518109544,0.0326618072999579));
#1322=CARTESIAN_POINT('',(0.04575,-0.0833841518109544,0.0314));
#1323=CARTESIAN_POINT('',(0.04785,-0.0833841518109544,0.0314));
#1324=CARTESIAN_POINT('',(0.04575,-0.0833841518109544,0.0254));
#1325=CARTESIAN_POINT('',(0.04575,-0.052,0.0314));
#1326=CARTESIAN_POINT('',(0.04575,-0.052,0.0326618072999579));
#1327=CARTESIAN_POINT('',(0.04575,-0.052,0.0314));
#1328=CARTESIAN_POINT('',(0.04785,-0.052,0.0314));
#1329=CARTESIAN_POINT('',(0.04575,-0.052,0.0254));
#1330=CARTESIAN_POINT('',(0.04575,0.05025,0.0314));
#1331=CARTESIAN_POINT('',(0.04575,0.05025,0.0326618072999579));
#1332=CARTESIAN_POINT('',(0.04575,0.05025,0.0314));
#1333=CARTESIAN_POINT('',(0.04785,0.05025,0.0314));
#1334=CARTESIAN_POINT('',(0.04575,0.05025,0.0254));
#1335=MECHANICAL_DESIGN_GEOMETRIC_PRESENTATION_REPRESENTATION('',(#730),
#1336);
#1336=(
GEOMETRIC_REPRESENTATION_CONTEXT(3)
GLOBAL_UNCERTAINTY_ASSIGNED_CONTEXT((#1337))
GLOBAL_UNIT_ASSIGNED_CONTEXT((#1340,#1339,#1338))
REPRESENTATION_CONTEXT('Part 3','TOP_LEVEL_ASSEMBLY_PART')
);
#1337=UNCERTAINTY_MEASURE_WITH_UNIT(LENGTH_MEASURE(2.E-5),#1340,
'DISTANCE_ACCURACY_VALUE','Maximum Tolerance applied to model');
#1338=(
NAMED_UNIT(*)
SI_UNIT($,.STERADIAN.)
SOLID_ANGLE_UNIT()
);
#1339=(
NAMED_UNIT(*)
PLANE_ANGLE_UNIT()
SI_UNIT($,.RADIAN.)
);
#1340=(
LENGTH_UNIT()
NAMED_UNIT(*)
SI_UNIT($,.METRE.)
);
#1341=PRODUCT_DEFINITION_SHAPE('','',#1342);
#1342=PRODUCT_DEFINITION('','',#1344,#1343);
#1343=PRODUCT_DEFINITION_CONTEXT('',#1350,'design');
#1344=PRODUCT_DEFINITION_FORMATION_WITH_SPECIFIED_SOURCE('','',#1346,
 .NOT_KNOWN.);
#1345=PRODUCT_RELATED_PRODUCT_CATEGORY('','',(#1346));
#1346=PRODUCT('Part 3','Part 3','Part 3',(#1348));
#1347=PRODUCT_CATEGORY('','');
#1348=PRODUCT_CONTEXT('',#1350,'mechanical');
#1349=APPLICATION_PROTOCOL_DEFINITION('international standard',
'ap242_managed_model_based_3d_engineering',2020,#1350);
#1350=APPLICATION_CONTEXT('managed model based 3d engineering');
ENDSEC;
END-ISO-10303-21;
