ISO-10303-21;
HEADER;
/* Generated by software containing ST-Developer
 * from STEP Tools, Inc. (www.steptools.com) 
 */
/* OPTION: using custom renumber hook */

FILE_DESCRIPTION(
/* description */ ('STEP AP242 Edition 2',
'CAx-IF Rec.Pracs.---Representation and Presentation of Product Manufa
cturing Information (PMI)---4.0---2014-10-13',
'CAx-IF Rec.Pracs.---3D Tessellated Geometry---0.4---2014-09-14','2;1',
'CAx-IF Rec.Pracs.---User Defined Attributes---1.5---2016-08-15'),
/* implementation_level */ '2;1');

FILE_NAME(
/* name */ 'Part Studio 1 - Part 1',
/* time_stamp */ '2026-10-04T17:52:56Z',
/* author */ (''),
/* organization */ (''),
/* preprocessor_version */ 'ST-DEVELOPER v20',
/* originating_system */ 'ONSHAPE BY PTC INC, 1.221',
/* authorisation */ '  ');

FILE_SCHEMA (('AP242_MANAGED_MODEL_BASED_3D_ENGINEERING_MIM_LF { 1 0 10303 442 3 1 4 }'));
ENDSEC;

DATA;
#10=SHAPE_REPRESENTATION_RELATIONSHIP('','',#533,#11);
#11=ADVANCED_BREP_SHAPE_REPRESENTATION('',(#531),#903);
#12=CYLINDRICAL_SURFACE('',#566,0.0015);
#13=CYLINDRICAL_SURFACE('',#567,0.0015);
#14=CYLINDRICAL_SURFACE('',#568,0.0015);
#15=CYLINDRICAL_SURFACE('',#569,0.0015);
#16=CYLINDRICAL_SURFACE('',#570,0.0017);
#17=CYLINDRICAL_SURFACE('',#574,0.00325);
#18=CYLINDRICAL_SURFACE('',#575,0.0017);
#19=CYLINDRICAL_SURFACE('',#579,0.00325);
#20=CYLINDRICAL_SURFACE('',#580,0.0017);
#21=CYLINDRICAL_SURFACE('',#584,0.00325);
#22=CYLINDRICAL_SURFACE('',#585,0.0017);
#23=CYLINDRICAL_SURFACE('',#589,0.00325);
#24=CYLINDRICAL_SURFACE('',#590,0.0017);
#25=CYLINDRICAL_SURFACE('',#594,0.00325);
#26=CYLINDRICAL_SURFACE('',#595,0.0017);
#27=CYLINDRICAL_SURFACE('',#599,0.00325);
#28=LINE('',#774,#56);
#29=LINE('',#779,#57);
#30=LINE('',#783,#58);
#31=LINE('',#787,#59);
#32=LINE('',#791,#60);
#33=LINE('',#794,#61);
#34=LINE('',#796,#62);
#35=LINE('',#798,#63);
#36=LINE('',#800,#64);
#37=LINE('',#802,#65);
#38=LINE('',#804,#66);
#39=LINE('',#806,#67);
#40=LINE('',#808,#68);
#41=LINE('',#810,#69);
#42=LINE('',#812,#70);
#43=LINE('',#813,#71);
#44=LINE('',#815,#72);
#45=LINE('',#818,#73);
#46=LINE('',#819,#74);
#47=LINE('',#821,#75);
#48=LINE('',#823,#76);
#49=LINE('',#825,#77);
#50=LINE('',#827,#78);
#51=LINE('',#829,#79);
#52=LINE('',#831,#80);
#53=LINE('',#833,#81);
#54=LINE('',#835,#82);
#55=LINE('',#837,#83);
#56=VECTOR('',#616,1.);
#57=VECTOR('',#619,1.);
#58=VECTOR('',#622,1.);
#59=VECTOR('',#625,1.);
#60=VECTOR('',#630,1.);
#61=VECTOR('',#631,1.);
#62=VECTOR('',#632,1.);
#63=VECTOR('',#633,1.);
#64=VECTOR('',#636,1.);
#65=VECTOR('',#637,1.);
#66=VECTOR('',#638,1.);
#67=VECTOR('',#641,1.);
#68=VECTOR('',#642,1.);
#69=VECTOR('',#643,1.);
#70=VECTOR('',#646,1.);
#71=VECTOR('',#647,1.);
#72=VECTOR('',#650,1.);
#73=VECTOR('',#651,1.);
#74=VECTOR('',#652,1.);
#75=VECTOR('',#655,1.);
#76=VECTOR('',#656,1.);
#77=VECTOR('',#657,1.);
#78=VECTOR('',#660,1.);
#79=VECTOR('',#661,1.);
#80=VECTOR('',#662,1.);
#81=VECTOR('',#665,1.);
#82=VECTOR('',#666,1.);
#83=VECTOR('',#667,1.);
#84=ORIENTED_EDGE('',*,*,#204,.T.);
#85=ORIENTED_EDGE('',*,*,#205,.T.);
#86=ORIENTED_EDGE('',*,*,#206,.T.);
#87=ORIENTED_EDGE('',*,*,#207,.T.);
#88=ORIENTED_EDGE('',*,*,#208,.T.);
#89=ORIENTED_EDGE('',*,*,#209,.T.);
#90=ORIENTED_EDGE('',*,*,#210,.T.);
#91=ORIENTED_EDGE('',*,*,#211,.T.);
#92=ORIENTED_EDGE('',*,*,#212,.T.);
#93=ORIENTED_EDGE('',*,*,#213,.T.);
#94=ORIENTED_EDGE('',*,*,#214,.F.);
#95=ORIENTED_EDGE('',*,*,#215,.T.);
#96=ORIENTED_EDGE('',*,*,#216,.F.);
#97=ORIENTED_EDGE('',*,*,#217,.T.);
#98=ORIENTED_EDGE('',*,*,#218,.T.);
#99=ORIENTED_EDGE('',*,*,#219,.T.);
#100=ORIENTED_EDGE('',*,*,#220,.F.);
#101=ORIENTED_EDGE('',*,*,#221,.F.);
#102=ORIENTED_EDGE('',*,*,#222,.F.);
#103=ORIENTED_EDGE('',*,*,#218,.F.);
#104=ORIENTED_EDGE('',*,*,#223,.T.);
#105=ORIENTED_EDGE('',*,*,#224,.T.);
#106=ORIENTED_EDGE('',*,*,#225,.F.);
#107=ORIENTED_EDGE('',*,*,#224,.F.);
#108=ORIENTED_EDGE('',*,*,#226,.T.);
#109=ORIENTED_EDGE('',*,*,#227,.T.);
#110=ORIENTED_EDGE('',*,*,#220,.T.);
#111=ORIENTED_EDGE('',*,*,#228,.T.);
#112=ORIENTED_EDGE('',*,*,#227,.F.);
#113=ORIENTED_EDGE('',*,*,#229,.F.);
#114=ORIENTED_EDGE('',*,*,#230,.T.);
#115=ORIENTED_EDGE('',*,*,#231,.T.);
#116=ORIENTED_EDGE('',*,*,#210,.F.);
#117=ORIENTED_EDGE('',*,*,#232,.T.);
#118=ORIENTED_EDGE('',*,*,#216,.T.);
#119=ORIENTED_EDGE('',*,*,#233,.T.);
#120=ORIENTED_EDGE('',*,*,#234,.F.);
#121=ORIENTED_EDGE('',*,*,#235,.T.);
#122=ORIENTED_EDGE('',*,*,#214,.T.);
#123=ORIENTED_EDGE('',*,*,#236,.T.);
#124=ORIENTED_EDGE('',*,*,#237,.F.);
#125=ORIENTED_EDGE('',*,*,#238,.T.);
#126=ORIENTED_EDGE('',*,*,#212,.F.);
#127=ORIENTED_EDGE('',*,*,#239,.T.);
#128=ORIENTED_EDGE('',*,*,#240,.T.);
#129=ORIENTED_EDGE('',*,*,#241,.T.);
#130=ORIENTED_EDGE('',*,*,#242,.T.);
#131=ORIENTED_EDGE('',*,*,#243,.T.);
#132=ORIENTED_EDGE('',*,*,#244,.T.);
#133=ORIENTED_EDGE('',*,*,#245,.T.);
#134=ORIENTED_EDGE('',*,*,#246,.T.);
#135=ORIENTED_EDGE('',*,*,#247,.T.);
#136=ORIENTED_EDGE('',*,*,#223,.F.);
#137=ORIENTED_EDGE('',*,*,#221,.T.);
#138=ORIENTED_EDGE('',*,*,#229,.T.);
#139=ORIENTED_EDGE('',*,*,#226,.F.);
#140=ORIENTED_EDGE('',*,*,#240,.F.);
#141=ORIENTED_EDGE('',*,*,#248,.T.);
#142=ORIENTED_EDGE('',*,*,#230,.F.);
#143=ORIENTED_EDGE('',*,*,#249,.T.);
#144=ORIENTED_EDGE('',*,*,#234,.T.);
#145=ORIENTED_EDGE('',*,*,#250,.T.);
#146=ORIENTED_EDGE('',*,*,#237,.T.);
#147=ORIENTED_EDGE('',*,*,#251,.T.);
#148=ORIENTED_EDGE('',*,*,#219,.F.);
#149=ORIENTED_EDGE('',*,*,#222,.T.);
#150=ORIENTED_EDGE('',*,*,#225,.T.);
#151=ORIENTED_EDGE('',*,*,#228,.F.);
#152=ORIENTED_EDGE('',*,*,#248,.F.);
#153=ORIENTED_EDGE('',*,*,#239,.F.);
#154=ORIENTED_EDGE('',*,*,#211,.F.);
#155=ORIENTED_EDGE('',*,*,#231,.F.);
#156=ORIENTED_EDGE('',*,*,#251,.F.);
#157=ORIENTED_EDGE('',*,*,#236,.F.);
#158=ORIENTED_EDGE('',*,*,#213,.F.);
#159=ORIENTED_EDGE('',*,*,#241,.F.);
#160=ORIENTED_EDGE('',*,*,#250,.F.);
#161=ORIENTED_EDGE('',*,*,#233,.F.);
#162=ORIENTED_EDGE('',*,*,#215,.F.);
#163=ORIENTED_EDGE('',*,*,#238,.F.);
#164=ORIENTED_EDGE('',*,*,#249,.F.);
#165=ORIENTED_EDGE('',*,*,#232,.F.);
#166=ORIENTED_EDGE('',*,*,#217,.F.);
#167=ORIENTED_EDGE('',*,*,#235,.F.);
#168=ORIENTED_EDGE('',*,*,#247,.F.);
#169=ORIENTED_EDGE('',*,*,#252,.F.);
#170=ORIENTED_EDGE('',*,*,#252,.T.);
#171=ORIENTED_EDGE('',*,*,#253,.F.);
#172=ORIENTED_EDGE('',*,*,#253,.T.);
#173=ORIENTED_EDGE('',*,*,#209,.F.);
#174=ORIENTED_EDGE('',*,*,#246,.F.);
#175=ORIENTED_EDGE('',*,*,#254,.F.);
#176=ORIENTED_EDGE('',*,*,#254,.T.);
#177=ORIENTED_EDGE('',*,*,#255,.F.);
#178=ORIENTED_EDGE('',*,*,#255,.T.);
#179=ORIENTED_EDGE('',*,*,#208,.F.);
#180=ORIENTED_EDGE('',*,*,#245,.F.);
#181=ORIENTED_EDGE('',*,*,#256,.F.);
#182=ORIENTED_EDGE('',*,*,#256,.T.);
#183=ORIENTED_EDGE('',*,*,#257,.F.);
#184=ORIENTED_EDGE('',*,*,#257,.T.);
#185=ORIENTED_EDGE('',*,*,#207,.F.);
#186=ORIENTED_EDGE('',*,*,#244,.F.);
#187=ORIENTED_EDGE('',*,*,#258,.F.);
#188=ORIENTED_EDGE('',*,*,#258,.T.);
#189=ORIENTED_EDGE('',*,*,#259,.F.);
#190=ORIENTED_EDGE('',*,*,#259,.T.);
#191=ORIENTED_EDGE('',*,*,#206,.F.);
#192=ORIENTED_EDGE('',*,*,#243,.F.);
#193=ORIENTED_EDGE('',*,*,#260,.F.);
#194=ORIENTED_EDGE('',*,*,#260,.T.);
#195=ORIENTED_EDGE('',*,*,#261,.F.);
#196=ORIENTED_EDGE('',*,*,#261,.T.);
#197=ORIENTED_EDGE('',*,*,#205,.F.);
#198=ORIENTED_EDGE('',*,*,#242,.F.);
#199=ORIENTED_EDGE('',*,*,#262,.F.);
#200=ORIENTED_EDGE('',*,*,#262,.T.);
#201=ORIENTED_EDGE('',*,*,#263,.F.);
#202=ORIENTED_EDGE('',*,*,#263,.T.);
#203=ORIENTED_EDGE('',*,*,#204,.F.);
#204=EDGE_CURVE('',#264,#264,#312,.T.);
#205=EDGE_CURVE('',#265,#265,#313,.T.);
#206=EDGE_CURVE('',#266,#266,#314,.T.);
#207=EDGE_CURVE('',#267,#267,#315,.T.);
#208=EDGE_CURVE('',#268,#268,#316,.T.);
#209=EDGE_CURVE('',#269,#269,#317,.T.);
#210=EDGE_CURVE('',#270,#271,#28,.T.);
#211=EDGE_CURVE('',#271,#272,#318,.F.);
#212=EDGE_CURVE('',#272,#273,#29,.T.);
#213=EDGE_CURVE('',#273,#274,#319,.F.);
#214=EDGE_CURVE('',#275,#274,#30,.T.);
#215=EDGE_CURVE('',#275,#276,#320,.F.);
#216=EDGE_CURVE('',#277,#276,#31,.T.);
#217=EDGE_CURVE('',#277,#270,#321,.F.);
#218=EDGE_CURVE('',#278,#279,#32,.T.);
#219=EDGE_CURVE('',#279,#280,#33,.T.);
#220=EDGE_CURVE('',#281,#280,#34,.T.);
#221=EDGE_CURVE('',#278,#281,#35,.T.);
#222=EDGE_CURVE('',#279,#282,#36,.T.);
#223=EDGE_CURVE('',#278,#283,#37,.T.);
#224=EDGE_CURVE('',#283,#282,#38,.T.);
#225=EDGE_CURVE('',#282,#284,#39,.T.);
#226=EDGE_CURVE('',#283,#285,#40,.T.);
#227=EDGE_CURVE('',#285,#284,#41,.T.);
#228=EDGE_CURVE('',#280,#284,#42,.T.);
#229=EDGE_CURVE('',#281,#285,#43,.T.);
#230=EDGE_CURVE('',#286,#287,#44,.T.);
#231=EDGE_CURVE('',#287,#271,#45,.T.);
#232=EDGE_CURVE('',#270,#286,#46,.F.);
#233=EDGE_CURVE('',#276,#288,#47,.F.);
#234=EDGE_CURVE('',#289,#288,#48,.T.);
#235=EDGE_CURVE('',#289,#277,#49,.T.);
#236=EDGE_CURVE('',#274,#290,#50,.F.);
#237=EDGE_CURVE('',#291,#290,#51,.T.);
#238=EDGE_CURVE('',#291,#275,#52,.T.);
#239=EDGE_CURVE('',#272,#292,#53,.F.);
#240=EDGE_CURVE('',#292,#293,#54,.T.);
#241=EDGE_CURVE('',#293,#273,#55,.T.);
#242=EDGE_CURVE('',#294,#294,#322,.F.);
#243=EDGE_CURVE('',#295,#295,#323,.F.);
#244=EDGE_CURVE('',#296,#296,#324,.F.);
#245=EDGE_CURVE('',#297,#297,#325,.F.);
#246=EDGE_CURVE('',#298,#298,#326,.F.);
#247=EDGE_CURVE('',#299,#299,#327,.F.);
#248=EDGE_CURVE('',#292,#287,#328,.T.);
#249=EDGE_CURVE('',#286,#289,#329,.T.);
#250=EDGE_CURVE('',#288,#291,#330,.T.);
#251=EDGE_CURVE('',#290,#293,#331,.T.);
#252=EDGE_CURVE('',#300,#300,#332,.T.);
#253=EDGE_CURVE('',#301,#301,#333,.T.);
#254=EDGE_CURVE('',#302,#302,#334,.T.);
#255=EDGE_CURVE('',#303,#303,#335,.T.);
#256=EDGE_CURVE('',#304,#304,#336,.T.);
#257=EDGE_CURVE('',#305,#305,#337,.T.);
#258=EDGE_CURVE('',#306,#306,#338,.T.);
#259=EDGE_CURVE('',#307,#307,#339,.T.);
#260=EDGE_CURVE('',#308,#308,#340,.T.);
#261=EDGE_CURVE('',#309,#309,#341,.T.);
#262=EDGE_CURVE('',#310,#310,#342,.T.);
#263=EDGE_CURVE('',#311,#311,#343,.T.);
#264=VERTEX_POINT('',#763);
#265=VERTEX_POINT('',#765);
#266=VERTEX_POINT('',#767);
#267=VERTEX_POINT('',#769);
#268=VERTEX_POINT('',#771);
#269=VERTEX_POINT('',#773);
#270=VERTEX_POINT('',#775);
#271=VERTEX_POINT('',#776);
#272=VERTEX_POINT('',#778);
#273=VERTEX_POINT('',#780);
#274=VERTEX_POINT('',#782);
#275=VERTEX_POINT('',#784);
#276=VERTEX_POINT('',#786);
#277=VERTEX_POINT('',#788);
#278=VERTEX_POINT('',#792);
#279=VERTEX_POINT('',#793);
#280=VERTEX_POINT('',#795);
#281=VERTEX_POINT('',#797);
#282=VERTEX_POINT('',#801);
#283=VERTEX_POINT('',#803);
#284=VERTEX_POINT('',#807);
#285=VERTEX_POINT('',#809);
#286=VERTEX_POINT('',#816);
#287=VERTEX_POINT('',#817);
#288=VERTEX_POINT('',#822);
#289=VERTEX_POINT('',#824);
#290=VERTEX_POINT('',#828);
#291=VERTEX_POINT('',#830);
#292=VERTEX_POINT('',#834);
#293=VERTEX_POINT('',#836);
#294=VERTEX_POINT('',#840);
#295=VERTEX_POINT('',#842);
#296=VERTEX_POINT('',#844);
#297=VERTEX_POINT('',#846);
#298=VERTEX_POINT('',#848);
#299=VERTEX_POINT('',#850);
#300=VERTEX_POINT('',#862);
#301=VERTEX_POINT('',#865);
#302=VERTEX_POINT('',#869);
#303=VERTEX_POINT('',#872);
#304=VERTEX_POINT('',#876);
#305=VERTEX_POINT('',#879);
#306=VERTEX_POINT('',#883);
#307=VERTEX_POINT('',#886);
#308=VERTEX_POINT('',#890);
#309=VERTEX_POINT('',#893);
#310=VERTEX_POINT('',#897);
#311=VERTEX_POINT('',#900);
#312=CIRCLE('',#536,0.00325);
#313=CIRCLE('',#537,0.00325);
#314=CIRCLE('',#538,0.00325);
#315=CIRCLE('',#539,0.00325);
#316=CIRCLE('',#540,0.00325);
#317=CIRCLE('',#541,0.00325);
#318=CIRCLE('',#542,0.0015);
#319=CIRCLE('',#543,0.0015);
#320=CIRCLE('',#544,0.0015);
#321=CIRCLE('',#545,0.0015);
#322=CIRCLE('',#555,0.0017);
#323=CIRCLE('',#556,0.0017);
#324=CIRCLE('',#557,0.0017);
#325=CIRCLE('',#558,0.0017);
#326=CIRCLE('',#559,0.0017);
#327=CIRCLE('',#560,0.0017);
#328=CIRCLE('',#561,0.0015);
#329=CIRCLE('',#562,0.0015);
#330=CIRCLE('',#563,0.0015);
#331=CIRCLE('',#564,0.0015);
#332=CIRCLE('',#571,0.0017);
#333=CIRCLE('',#573,0.00325);
#334=CIRCLE('',#576,0.0017);
#335=CIRCLE('',#578,0.00325);
#336=CIRCLE('',#581,0.0017);
#337=CIRCLE('',#583,0.00325);
#338=CIRCLE('',#586,0.0017);
#339=CIRCLE('',#588,0.00325);
#340=CIRCLE('',#591,0.0017);
#341=CIRCLE('',#593,0.00325);
#342=CIRCLE('',#596,0.0017);
#343=CIRCLE('',#598,0.00325);
#344=EDGE_LOOP('',(#84));
#345=EDGE_LOOP('',(#85));
#346=EDGE_LOOP('',(#86));
#347=EDGE_LOOP('',(#87));
#348=EDGE_LOOP('',(#88));
#349=EDGE_LOOP('',(#89));
#350=EDGE_LOOP('',(#90,#91,#92,#93,#94,#95,#96,#97));
#351=EDGE_LOOP('',(#98,#99,#100,#101));
#352=EDGE_LOOP('',(#102,#103,#104,#105));
#353=EDGE_LOOP('',(#106,#107,#108,#109));
#354=EDGE_LOOP('',(#110,#111,#112,#113));
#355=EDGE_LOOP('',(#114,#115,#116,#117));
#356=EDGE_LOOP('',(#118,#119,#120,#121));
#357=EDGE_LOOP('',(#122,#123,#124,#125));
#358=EDGE_LOOP('',(#126,#127,#128,#129));
#359=EDGE_LOOP('',(#130));
#360=EDGE_LOOP('',(#131));
#361=EDGE_LOOP('',(#132));
#362=EDGE_LOOP('',(#133));
#363=EDGE_LOOP('',(#134));
#364=EDGE_LOOP('',(#135));
#365=EDGE_LOOP('',(#136,#137,#138,#139));
#366=EDGE_LOOP('',(#140,#141,#142,#143,#144,#145,#146,#147));
#367=EDGE_LOOP('',(#148,#149,#150,#151));
#368=EDGE_LOOP('',(#152,#153,#154,#155));
#369=EDGE_LOOP('',(#156,#157,#158,#159));
#370=EDGE_LOOP('',(#160,#161,#162,#163));
#371=EDGE_LOOP('',(#164,#165,#166,#167));
#372=EDGE_LOOP('',(#168));
#373=EDGE_LOOP('',(#169));
#374=EDGE_LOOP('',(#170));
#375=EDGE_LOOP('',(#171));
#376=EDGE_LOOP('',(#172));
#377=EDGE_LOOP('',(#173));
#378=EDGE_LOOP('',(#174));
#379=EDGE_LOOP('',(#175));
#380=EDGE_LOOP('',(#176));
#381=EDGE_LOOP('',(#177));
#382=EDGE_LOOP('',(#178));
#383=EDGE_LOOP('',(#179));
#384=EDGE_LOOP('',(#180));
#385=EDGE_LOOP('',(#181));
#386=EDGE_LOOP('',(#182));
#387=EDGE_LOOP('',(#183));
#388=EDGE_LOOP('',(#184));
#389=EDGE_LOOP('',(#185));
#390=EDGE_LOOP('',(#186));
#391=EDGE_LOOP('',(#187));
#392=EDGE_LOOP('',(#188));
#393=EDGE_LOOP('',(#189));
#394=EDGE_LOOP('',(#190));
#395=EDGE_LOOP('',(#191));
#396=EDGE_LOOP('',(#192));
#397=EDGE_LOOP('',(#193));
#398=EDGE_LOOP('',(#194));
#399=EDGE_LOOP('',(#195));
#400=EDGE_LOOP('',(#196));
#401=EDGE_LOOP('',(#197));
#402=EDGE_LOOP('',(#198));
#403=EDGE_LOOP('',(#199));
#404=EDGE_LOOP('',(#200));
#405=EDGE_LOOP('',(#201));
#406=EDGE_LOOP('',(#202));
#407=EDGE_LOOP('',(#203));
#408=FACE_BOUND('',#344,.T.);
#409=FACE_BOUND('',#345,.T.);
#410=FACE_BOUND('',#346,.T.);
#411=FACE_BOUND('',#347,.T.);
#412=FACE_BOUND('',#348,.T.);
#413=FACE_BOUND('',#349,.T.);
#414=FACE_BOUND('',#350,.T.);
#415=FACE_BOUND('',#351,.T.);
#416=FACE_BOUND('',#352,.T.);
#417=FACE_BOUND('',#353,.T.);
#418=FACE_BOUND('',#354,.T.);
#419=FACE_BOUND('',#355,.T.);
#420=FACE_BOUND('',#356,.T.);
#421=FACE_BOUND('',#357,.T.);
#422=FACE_BOUND('',#358,.T.);
#423=FACE_BOUND('',#359,.T.);
#424=FACE_BOUND('',#360,.T.);
#425=FACE_BOUND('',#361,.T.);
#426=FACE_BOUND('',#362,.T.);
#427=FACE_BOUND('',#363,.T.);
#428=FACE_BOUND('',#364,.T.);
#429=FACE_BOUND('',#365,.T.);
#430=FACE_BOUND('',#366,.T.);
#431=FACE_BOUND('',#367,.T.);
#432=FACE_BOUND('',#368,.T.);
#433=FACE_BOUND('',#369,.T.);
#434=FACE_BOUND('',#370,.T.);
#435=FACE_BOUND('',#371,.T.);
#436=FACE_BOUND('',#372,.T.);
#437=FACE_BOUND('',#373,.T.);
#438=FACE_BOUND('',#374,.T.);
#439=FACE_BOUND('',#375,.T.);
#440=FACE_BOUND('',#376,.T.);
#441=FACE_BOUND('',#377,.T.);
#442=FACE_BOUND('',#378,.T.);
#443=FACE_BOUND('',#379,.T.);
#444=FACE_BOUND('',#380,.T.);
#445=FACE_BOUND('',#381,.T.);
#446=FACE_BOUND('',#382,.T.);
#447=FACE_BOUND('',#383,.T.);
#448=FACE_BOUND('',#384,.T.);
#449=FACE_BOUND('',#385,.T.);
#450=FACE_BOUND('',#386,.T.);
#451=FACE_BOUND('',#387,.T.);
#452=FACE_BOUND('',#388,.T.);
#453=FACE_BOUND('',#389,.T.);
#454=FACE_BOUND('',#390,.T.);
#455=FACE_BOUND('',#391,.T.);
#456=FACE_BOUND('',#392,.T.);
#457=FACE_BOUND('',#393,.T.);
#458=FACE_BOUND('',#394,.T.);
#459=FACE_BOUND('',#395,.T.);
#460=FACE_BOUND('',#396,.T.);
#461=FACE_BOUND('',#397,.T.);
#462=FACE_BOUND('',#398,.T.);
#463=FACE_BOUND('',#399,.T.);
#464=FACE_BOUND('',#400,.T.);
#465=FACE_BOUND('',#401,.T.);
#466=FACE_BOUND('',#402,.T.);
#467=FACE_BOUND('',#403,.T.);
#468=FACE_BOUND('',#404,.T.);
#469=FACE_BOUND('',#405,.T.);
#470=FACE_BOUND('',#406,.T.);
#471=FACE_BOUND('',#407,.T.);
#472=PLANE('',#535);
#473=PLANE('',#546);
#474=PLANE('',#547);
#475=PLANE('',#548);
#476=PLANE('',#549);
#477=PLANE('',#550);
#478=PLANE('',#551);
#479=PLANE('',#552);
#480=PLANE('',#553);
#481=PLANE('',#554);
#482=PLANE('',#565);
#483=PLANE('',#572);
#484=PLANE('',#577);
#485=PLANE('',#582);
#486=PLANE('',#587);
#487=PLANE('',#592);
#488=PLANE('',#597);
#489=ADVANCED_FACE('',(#408,#409,#410,#411,#412,#413,#414),#472,.F.);
#490=ADVANCED_FACE('',(#415),#473,.F.);
#491=ADVANCED_FACE('',(#416),#474,.T.);
#492=ADVANCED_FACE('',(#417),#475,.T.);
#493=ADVANCED_FACE('',(#418),#476,.F.);
#494=ADVANCED_FACE('',(#419),#477,.T.);
#495=ADVANCED_FACE('',(#420),#478,.F.);
#496=ADVANCED_FACE('',(#421),#479,.F.);
#497=ADVANCED_FACE('',(#422),#480,.T.);
#498=ADVANCED_FACE('',(#423,#424,#425,#426,#427,#428,#429,#430),#481,.T.);
#499=ADVANCED_FACE('',(#431),#482,.T.);
#500=ADVANCED_FACE('',(#432),#12,.T.);
#501=ADVANCED_FACE('',(#433),#13,.T.);
#502=ADVANCED_FACE('',(#434),#14,.T.);
#503=ADVANCED_FACE('',(#435),#15,.T.);
#504=ADVANCED_FACE('',(#436,#437),#16,.F.);
#505=ADVANCED_FACE('',(#438,#439),#483,.T.);
#506=ADVANCED_FACE('',(#440,#441),#17,.F.);
#507=ADVANCED_FACE('',(#442,#443),#18,.F.);
#508=ADVANCED_FACE('',(#444,#445),#484,.T.);
#509=ADVANCED_FACE('',(#446,#447),#19,.F.);
#510=ADVANCED_FACE('',(#448,#449),#20,.F.);
#511=ADVANCED_FACE('',(#450,#451),#485,.T.);
#512=ADVANCED_FACE('',(#452,#453),#21,.F.);
#513=ADVANCED_FACE('',(#454,#455),#22,.F.);
#514=ADVANCED_FACE('',(#456,#457),#486,.T.);
#515=ADVANCED_FACE('',(#458,#459),#23,.F.);
#516=ADVANCED_FACE('',(#460,#461),#24,.F.);
#517=ADVANCED_FACE('',(#462,#463),#487,.T.);
#518=ADVANCED_FACE('',(#464,#465),#25,.F.);
#519=ADVANCED_FACE('',(#466,#467),#26,.F.);
#520=ADVANCED_FACE('',(#468,#469),#488,.T.);
#521=ADVANCED_FACE('',(#470,#471),#27,.F.);
#522=CLOSED_SHELL('',(#489,#490,#491,#492,#493,#494,#495,#496,#497,#498,
#499,#500,#501,#502,#503,#504,#505,#506,#507,#508,#509,#510,#511,#512,#513,
#514,#515,#516,#517,#518,#519,#520,#521));
#523=STYLED_ITEM('',(#524),#531);
#524=PRESENTATION_STYLE_ASSIGNMENT((#525));
#525=SURFACE_STYLE_USAGE(.BOTH.,#526);
#526=SURFACE_SIDE_STYLE('',(#527));
#527=SURFACE_STYLE_FILL_AREA(#528);
#528=FILL_AREA_STYLE('',(#529));
#529=FILL_AREA_STYLE_COLOUR('',#530);
#530=COLOUR_RGB('',0.615686274509804,0.811764705882353,0.929411764705882);
#531=MANIFOLD_SOLID_BREP('Part 1',#522);
#532=SHAPE_DEFINITION_REPRESENTATION(#908,#533);
#533=SHAPE_REPRESENTATION('Part 1',(#534),#903);
#534=AXIS2_PLACEMENT_3D('',#760,#600,#601);
#535=AXIS2_PLACEMENT_3D('',#761,#602,#603);
#536=AXIS2_PLACEMENT_3D('',#762,#604,#605);
#537=AXIS2_PLACEMENT_3D('',#764,#606,#607);
#538=AXIS2_PLACEMENT_3D('',#766,#608,#609);
#539=AXIS2_PLACEMENT_3D('',#768,#610,#611);
#540=AXIS2_PLACEMENT_3D('',#770,#612,#613);
#541=AXIS2_PLACEMENT_3D('',#772,#614,#615);
#542=AXIS2_PLACEMENT_3D('',#777,#617,#618);
#543=AXIS2_PLACEMENT_3D('',#781,#620,#621);
#544=AXIS2_PLACEMENT_3D('',#785,#623,#624);
#545=AXIS2_PLACEMENT_3D('',#789,#626,#627);
#546=AXIS2_PLACEMENT_3D('',#790,#628,#629);
#547=AXIS2_PLACEMENT_3D('',#799,#634,#635);
#548=AXIS2_PLACEMENT_3D('',#805,#639,#640);
#549=AXIS2_PLACEMENT_3D('',#811,#644,#645);
#550=AXIS2_PLACEMENT_3D('',#814,#648,#649);
#551=AXIS2_PLACEMENT_3D('',#820,#653,#654);
#552=AXIS2_PLACEMENT_3D('',#826,#658,#659);
#553=AXIS2_PLACEMENT_3D('',#832,#663,#664);
#554=AXIS2_PLACEMENT_3D('',#838,#668,#669);
#555=AXIS2_PLACEMENT_3D('',#839,#670,#671);
#556=AXIS2_PLACEMENT_3D('',#841,#672,#673);
#557=AXIS2_PLACEMENT_3D('',#843,#674,#675);
#558=AXIS2_PLACEMENT_3D('',#845,#676,#677);
#559=AXIS2_PLACEMENT_3D('',#847,#678,#679);
#560=AXIS2_PLACEMENT_3D('',#849,#680,#681);
#561=AXIS2_PLACEMENT_3D('',#851,#682,#683);
#562=AXIS2_PLACEMENT_3D('',#852,#684,#685);
#563=AXIS2_PLACEMENT_3D('',#853,#686,#687);
#564=AXIS2_PLACEMENT_3D('',#854,#688,#689);
#565=AXIS2_PLACEMENT_3D('',#855,#690,#691);
#566=AXIS2_PLACEMENT_3D('',#856,#692,#693);
#567=AXIS2_PLACEMENT_3D('',#857,#694,#695);
#568=AXIS2_PLACEMENT_3D('',#858,#696,#697);
#569=AXIS2_PLACEMENT_3D('',#859,#698,#699);
#570=AXIS2_PLACEMENT_3D('',#860,#700,#701);
#571=AXIS2_PLACEMENT_3D('',#861,#702,#703);
#572=AXIS2_PLACEMENT_3D('',#863,#704,#705);
#573=AXIS2_PLACEMENT_3D('',#864,#706,#707);
#574=AXIS2_PLACEMENT_3D('',#866,#708,#709);
#575=AXIS2_PLACEMENT_3D('',#867,#710,#711);
#576=AXIS2_PLACEMENT_3D('',#868,#712,#713);
#577=AXIS2_PLACEMENT_3D('',#870,#714,#715);
#578=AXIS2_PLACEMENT_3D('',#871,#716,#717);
#579=AXIS2_PLACEMENT_3D('',#873,#718,#719);
#580=AXIS2_PLACEMENT_3D('',#874,#720,#721);
#581=AXIS2_PLACEMENT_3D('',#875,#722,#723);
#582=AXIS2_PLACEMENT_3D('',#877,#724,#725);
#583=AXIS2_PLACEMENT_3D('',#878,#726,#727);
#584=AXIS2_PLACEMENT_3D('',#880,#728,#729);
#585=AXIS2_PLACEMENT_3D('',#881,#730,#731);
#586=AXIS2_PLACEMENT_3D('',#882,#732,#733);
#587=AXIS2_PLACEMENT_3D('',#884,#734,#735);
#588=AXIS2_PLACEMENT_3D('',#885,#736,#737);
#589=AXIS2_PLACEMENT_3D('',#887,#738,#739);
#590=AXIS2_PLACEMENT_3D('',#888,#740,#741);
#591=AXIS2_PLACEMENT_3D('',#889,#742,#743);
#592=AXIS2_PLACEMENT_3D('',#891,#744,#745);
#593=AXIS2_PLACEMENT_3D('',#892,#746,#747);
#594=AXIS2_PLACEMENT_3D('',#894,#748,#749);
#595=AXIS2_PLACEMENT_3D('',#895,#750,#751);
#596=AXIS2_PLACEMENT_3D('',#896,#752,#753);
#597=AXIS2_PLACEMENT_3D('',#898,#754,#755);
#598=AXIS2_PLACEMENT_3D('',#899,#756,#757);
#599=AXIS2_PLACEMENT_3D('',#901,#758,#759);
#600=DIRECTION('',(0.,0.,1.));
#601=DIRECTION('',(1.,0.,0.));
#602=DIRECTION('',(0.,0.,1.));
#603=DIRECTION('',(1.,0.,0.));
#604=DIRECTION('',(0.,0.,1.));
#605=DIRECTION('',(1.,0.,0.));
#606=DIRECTION('',(0.,0.,1.));
#607=DIRECTION('',(1.,0.,0.));
#608=DIRECTION('',(0.,0.,1.));
#609=DIRECTION('',(1.,0.,0.));
#610=DIRECTION('',(0.,0.,1.));
#611=DIRECTION('',(1.,0.,0.));
#612=DIRECTION('',(0.,0.,1.));
#613=DIRECTION('',(1.,0.,0.));
#614=DIRECTION('',(0.,0.,1.));
#615=DIRECTION('',(1.,0.,0.));
#616=DIRECTION('',(1.,0.,0.));
#617=DIRECTION('',(0.,0.,1.));
#618=DIRECTION('',(1.,0.,0.));
#619=DIRECTION('',(-1.4557120078127E-16,-1.,0.));
#620=DIRECTION('',(0.,0.,1.));
#621=DIRECTION('',(1.,0.,0.));
#622=DIRECTION('',(1.,0.,0.));
#623=DIRECTION('',(0.,0.,1.));
#624=DIRECTION('',(1.,0.,0.));
#625=DIRECTION('',(-1.4557120078127E-16,-1.,0.));
#626=DIRECTION('',(0.,0.,1.));
#627=DIRECTION('',(1.,0.,0.));
#628=DIRECTION('',(0.,1.,0.));
#629=DIRECTION('',(0.,0.,1.));
#630=DIRECTION('',(0.,0.,-1.));
#631=DIRECTION('',(1.,0.,0.));
#632=DIRECTION('',(0.,0.,-1.));
#633=DIRECTION('',(1.,0.,0.));
#634=DIRECTION('',(1.,0.,0.));
#635=DIRECTION('',(0.,0.,-1.));
#636=DIRECTION('',(0.,-1.,0.));
#637=DIRECTION('',(0.,-1.,0.));
#638=DIRECTION('',(0.,0.,-1.));
#639=DIRECTION('',(0.,1.,0.));
#640=DIRECTION('',(0.,0.,1.));
#641=DIRECTION('',(1.,0.,0.));
#642=DIRECTION('',(1.,0.,0.));
#643=DIRECTION('',(0.,0.,-1.));
#644=DIRECTION('',(1.,0.,0.));
#645=DIRECTION('',(0.,0.,-1.));
#646=DIRECTION('',(0.,-1.,0.));
#647=DIRECTION('',(0.,-1.,0.));
#648=DIRECTION('',(0.,1.,0.));
#649=DIRECTION('',(0.,0.,1.));
#650=DIRECTION('',(1.,0.,0.));
#651=DIRECTION('',(0.,0.,-1.));
#652=DIRECTION('',(0.,0.,-1.));
#653=DIRECTION('',(1.,-1.4557120078127E-16,0.));
#654=DIRECTION('',(1.4557120078127E-16,1.,0.));
#655=DIRECTION('',(0.,0.,-1.));
#656=DIRECTION('',(-1.4557120078127E-16,-1.,0.));
#657=DIRECTION('',(0.,0.,-1.));
#658=DIRECTION('',(0.,1.,0.));
#659=DIRECTION('',(0.,0.,1.));
#660=DIRECTION('',(0.,0.,-1.));
#661=DIRECTION('',(1.,0.,0.));
#662=DIRECTION('',(0.,0.,-1.));
#663=DIRECTION('',(1.,-1.4557120078127E-16,0.));
#664=DIRECTION('',(1.4557120078127E-16,1.,0.));
#665=DIRECTION('',(0.,0.,-1.));
#666=DIRECTION('',(-1.4557120078127E-16,-1.,0.));
#667=DIRECTION('',(0.,0.,-1.));
#668=DIRECTION('',(0.,0.,1.));
#669=DIRECTION('',(1.,0.,0.));
#670=DIRECTION('',(0.,0.,1.));
#671=DIRECTION('',(1.,0.,0.));
#672=DIRECTION('',(0.,0.,1.));
#673=DIRECTION('',(1.,0.,0.));
#674=DIRECTION('',(0.,0.,1.));
#675=DIRECTION('',(1.,0.,0.));
#676=DIRECTION('',(0.,0.,1.));
#677=DIRECTION('',(1.,0.,0.));
#678=DIRECTION('',(0.,0.,1.));
#679=DIRECTION('',(1.,0.,0.));
#680=DIRECTION('',(0.,0.,1.));
#681=DIRECTION('',(1.,0.,0.));
#682=DIRECTION('',(0.,0.,1.));
#683=DIRECTION('',(1.,0.,0.));
#684=DIRECTION('',(0.,0.,1.));
#685=DIRECTION('',(1.,0.,0.));
#686=DIRECTION('',(0.,0.,1.));
#687=DIRECTION('',(1.,0.,0.));
#688=DIRECTION('',(0.,0.,1.));
#689=DIRECTION('',(1.,0.,0.));
#690=DIRECTION('',(0.,0.,1.));
#691=DIRECTION('',(1.,0.,0.));
#692=DIRECTION('',(0.,0.,-1.));
#693=DIRECTION('',(-1.,0.,0.));
#694=DIRECTION('',(0.,0.,1.));
#695=DIRECTION('',(1.,0.,0.));
#696=DIRECTION('',(0.,0.,-1.));
#697=DIRECTION('',(-1.,0.,0.));
#698=DIRECTION('',(0.,0.,1.));
#699=DIRECTION('',(1.,0.,0.));
#700=DIRECTION('',(0.,0.,1.));
#701=DIRECTION('',(1.,0.,0.));
#702=DIRECTION('',(0.,0.,1.));
#703=DIRECTION('',(1.,0.,0.));
#704=DIRECTION('',(0.,0.,-1.));
#705=DIRECTION('',(-1.,0.,0.));
#706=DIRECTION('',(0.,0.,1.));
#707=DIRECTION('',(1.,0.,0.));
#708=DIRECTION('',(0.,0.,1.));
#709=DIRECTION('',(1.,0.,0.));
#710=DIRECTION('',(0.,0.,1.));
#711=DIRECTION('',(1.,0.,0.));
#712=DIRECTION('',(0.,0.,1.));
#713=DIRECTION('',(1.,0.,0.));
#714=DIRECTION('',(0.,0.,-1.));
#715=DIRECTION('',(-1.,0.,0.));
#716=DIRECTION('',(0.,0.,1.));
#717=DIRECTION('',(1.,0.,0.));
#718=DIRECTION('',(0.,0.,1.));
#719=DIRECTION('',(1.,0.,0.));
#720=DIRECTION('',(0.,0.,1.));
#721=DIRECTION('',(1.,0.,0.));
#722=DIRECTION('',(0.,0.,1.));
#723=DIRECTION('',(1.,0.,0.));
#724=DIRECTION('',(0.,0.,-1.));
#725=DIRECTION('',(-1.,0.,0.));
#726=DIRECTION('',(0.,0.,1.));
#727=DIRECTION('',(1.,0.,0.));
#728=DIRECTION('',(0.,0.,1.));
#729=DIRECTION('',(1.,0.,0.));
#730=DIRECTION('',(0.,0.,1.));
#731=DIRECTION('',(1.,0.,0.));
#732=DIRECTION('',(0.,0.,1.));
#733=DIRECTION('',(1.,0.,0.));
#734=DIRECTION('',(0.,0.,-1.));
#735=DIRECTION('',(-1.,0.,0.));
#736=DIRECTION('',(0.,0.,1.));
#737=DIRECTION('',(1.,0.,0.));
#738=DIRECTION('',(0.,0.,1.));
#739=DIRECTION('',(1.,0.,0.));
#740=DIRECTION('',(0.,0.,1.));
#741=DIRECTION('',(1.,0.,0.));
#742=DIRECTION('',(0.,0.,1.));
#743=DIRECTION('',(1.,0.,0.));
#744=DIRECTION('',(0.,0.,-1.));
#745=DIRECTION('',(-1.,0.,0.));
#746=DIRECTION('',(0.,0.,1.));
#747=DIRECTION('',(1.,0.,0.));
#748=DIRECTION('',(0.,0.,1.));
#749=DIRECTION('',(1.,0.,0.));
#750=DIRECTION('',(0.,0.,1.));
#751=DIRECTION('',(1.,0.,0.));
#752=DIRECTION('',(0.,0.,1.));
#753=DIRECTION('',(1.,0.,0.));
#754=DIRECTION('',(0.,0.,-1.));
#755=DIRECTION('',(-1.,0.,0.));
#756=DIRECTION('',(0.,0.,1.));
#757=DIRECTION('',(1.,0.,0.));
#758=DIRECTION('',(0.,0.,1.));
#759=DIRECTION('',(1.,0.,0.));
#760=CARTESIAN_POINT('',(0.,0.,0.));
#761=CARTESIAN_POINT('',(0.,-0.01775,0.));
#762=CARTESIAN_POINT('',(0.04575,-0.052,0.));
#763=CARTESIAN_POINT('',(0.049,-0.052,0.));
#764=CARTESIAN_POINT('',(-0.04575,-0.052,0.));
#765=CARTESIAN_POINT('',(-0.0425,-0.052,0.));
#766=CARTESIAN_POINT('',(-0.04575,0.05025,0.));
#767=CARTESIAN_POINT('',(-0.0425,0.05025,0.));
#768=CARTESIAN_POINT('',(0.04575,-0.0833841518109544,0.));
#769=CARTESIAN_POINT('',(0.049,-0.0833841518109544,0.));
#770=CARTESIAN_POINT('',(0.04575,0.05025,0.));
#771=CARTESIAN_POINT('',(0.049,0.05025,0.));
#772=CARTESIAN_POINT('',(-0.04575,-0.0833841518109544,0.));
#773=CARTESIAN_POINT('',(-0.0425,-0.0833841518109544,0.));
#774=CARTESIAN_POINT('',(6.93889390390723E-18,0.05375,0.));
#775=CARTESIAN_POINT('',(-0.0485,0.05375,0.));
#776=CARTESIAN_POINT('',(0.0485,0.05375,0.));
#777=CARTESIAN_POINT('',(0.0485,0.05225,0.));
#778=CARTESIAN_POINT('',(0.05,0.05225,0.));
#779=CARTESIAN_POINT('',(0.05,-0.01775,0.));
#780=CARTESIAN_POINT('',(0.05,-0.08775,0.));
#781=CARTESIAN_POINT('',(0.0485,-0.08775,0.));
#782=CARTESIAN_POINT('',(0.0485,-0.08925,0.));
#783=CARTESIAN_POINT('',(-1.38777878078145E-17,-0.08925,0.));
#784=CARTESIAN_POINT('',(-0.0485,-0.08925,0.));
#785=CARTESIAN_POINT('',(-0.0485,-0.08775,0.));
#786=CARTESIAN_POINT('',(-0.05,-0.08775,0.));
#787=CARTESIAN_POINT('',(-0.05,-0.01775,0.));
#788=CARTESIAN_POINT('',(-0.05,0.05225,0.));
#789=CARTESIAN_POINT('',(-0.0485,0.05225,0.));
#790=CARTESIAN_POINT('',(0.,0.05025,0.024));
#791=CARTESIAN_POINT('',(-0.0415,0.05025,0.024));
#792=CARTESIAN_POINT('',(-0.0415,0.05025,0.024));
#793=CARTESIAN_POINT('',(-0.0415,0.05025,0.004));
#794=CARTESIAN_POINT('',(0.,0.05025,0.004));
#795=CARTESIAN_POINT('',(0.0415,0.05025,0.004));
#796=CARTESIAN_POINT('',(0.0415,0.05025,0.024));
#797=CARTESIAN_POINT('',(0.0415,0.05025,0.024));
#798=CARTESIAN_POINT('',(0.,0.05025,0.024));
#799=CARTESIAN_POINT('',(-0.0415,0.,0.024));
#800=CARTESIAN_POINT('',(-0.0415,0.,0.004));
#801=CARTESIAN_POINT('',(-0.0415,-0.05025,0.004));
#802=CARTESIAN_POINT('',(-0.0415,0.,0.024));
#803=CARTESIAN_POINT('',(-0.0415,-0.05025,0.024));
#804=CARTESIAN_POINT('',(-0.0415,-0.05025,0.024));
#805=CARTESIAN_POINT('',(0.,-0.05025,0.024));
#806=CARTESIAN_POINT('',(0.,-0.05025,0.004));
#807=CARTESIAN_POINT('',(0.0415,-0.05025,0.004));
#808=CARTESIAN_POINT('',(0.,-0.05025,0.024));
#809=CARTESIAN_POINT('',(0.0415,-0.05025,0.024));
#810=CARTESIAN_POINT('',(0.0415,-0.05025,0.024));
#811=CARTESIAN_POINT('',(0.0415,0.,0.024));
#812=CARTESIAN_POINT('',(0.0415,0.,0.004));
#813=CARTESIAN_POINT('',(0.0415,0.,0.024));
#814=CARTESIAN_POINT('',(6.93889390390723E-18,0.05375,0.024));
#815=CARTESIAN_POINT('',(6.93889390390723E-18,0.05375,0.024));
#816=CARTESIAN_POINT('',(-0.0485,0.05375,0.024));
#817=CARTESIAN_POINT('',(0.0485,0.05375,0.024));
#818=CARTESIAN_POINT('',(0.0485,0.05375,0.024));
#819=CARTESIAN_POINT('',(-0.0485,0.05375,0.024));
#820=CARTESIAN_POINT('',(-0.05,-0.01775,0.024));
#821=CARTESIAN_POINT('',(-0.05,-0.08775,0.024));
#822=CARTESIAN_POINT('',(-0.05,-0.08775,0.024));
#823=CARTESIAN_POINT('',(-0.05,-0.01775,0.024));
#824=CARTESIAN_POINT('',(-0.05,0.05225,0.024));
#825=CARTESIAN_POINT('',(-0.05,0.05225,0.));
#826=CARTESIAN_POINT('',(-1.38777878078145E-17,-0.08925,0.024));
#827=CARTESIAN_POINT('',(0.0485,-0.08925,0.024));
#828=CARTESIAN_POINT('',(0.0485,-0.08925,0.024));
#829=CARTESIAN_POINT('',(-1.38777878078145E-17,-0.08925,0.024));
#830=CARTESIAN_POINT('',(-0.0485,-0.08925,0.024));
#831=CARTESIAN_POINT('',(-0.0485,-0.08925,0.024));
#832=CARTESIAN_POINT('',(0.05,-0.01775,0.024));
#833=CARTESIAN_POINT('',(0.05,0.05225,0.024));
#834=CARTESIAN_POINT('',(0.05,0.05225,0.024));
#835=CARTESIAN_POINT('',(0.05,-0.01775,0.024));
#836=CARTESIAN_POINT('',(0.05,-0.08775,0.024));
#837=CARTESIAN_POINT('',(0.05,-0.08775,0.));
#838=CARTESIAN_POINT('',(0.,-0.01775,0.024));
#839=CARTESIAN_POINT('',(0.04575,-0.052,0.024));
#840=CARTESIAN_POINT('',(0.04745,-0.052,0.024));
#841=CARTESIAN_POINT('',(-0.04575,-0.052,0.024));
#842=CARTESIAN_POINT('',(-0.04405,-0.052,0.024));
#843=CARTESIAN_POINT('',(-0.04575,0.05025,0.024));
#844=CARTESIAN_POINT('',(-0.04405,0.05025,0.024));
#845=CARTESIAN_POINT('',(0.04575,-0.0833841518109544,0.024));
#846=CARTESIAN_POINT('',(0.04745,-0.0833841518109544,0.024));
#847=CARTESIAN_POINT('',(0.04575,0.05025,0.024));
#848=CARTESIAN_POINT('',(0.04745,0.05025,0.024));
#849=CARTESIAN_POINT('',(-0.04575,-0.0833841518109544,0.024));
#850=CARTESIAN_POINT('',(-0.04405,-0.0833841518109544,0.024));
#851=CARTESIAN_POINT('',(0.0485,0.05225,0.024));
#852=CARTESIAN_POINT('',(-0.0485,0.05225,0.024));
#853=CARTESIAN_POINT('',(-0.0485,-0.08775,0.024));
#854=CARTESIAN_POINT('',(0.0485,-0.08775,0.024));
#855=CARTESIAN_POINT('',(0.,-0.01775,0.004));
#856=CARTESIAN_POINT('',(0.0485,0.05225,0.024));
#857=CARTESIAN_POINT('',(0.0485,-0.08775,0.024));
#858=CARTESIAN_POINT('',(-0.0485,-0.08775,0.024));
#859=CARTESIAN_POINT('',(-0.0485,0.05225,0.024));
#860=CARTESIAN_POINT('',(-0.04575,-0.0833841518109544,0.));
#861=CARTESIAN_POINT('',(-0.04575,-0.0833841518109544,0.0032));
#862=CARTESIAN_POINT('',(-0.04405,-0.0833841518109544,0.0032));
#863=CARTESIAN_POINT('',(-0.0425,-0.0833841518109544,0.0032));
#864=CARTESIAN_POINT('',(-0.04575,-0.0833841518109544,0.0032));
#865=CARTESIAN_POINT('',(-0.0425,-0.0833841518109544,0.0032));
#866=CARTESIAN_POINT('',(-0.04575,-0.0833841518109544,0.));
#867=CARTESIAN_POINT('',(0.04575,0.05025,0.));
#868=CARTESIAN_POINT('',(0.04575,0.05025,0.0032));
#869=CARTESIAN_POINT('',(0.04745,0.05025,0.0032));
#870=CARTESIAN_POINT('',(0.049,0.05025,0.0032));
#871=CARTESIAN_POINT('',(0.04575,0.05025,0.0032));
#872=CARTESIAN_POINT('',(0.049,0.05025,0.0032));
#873=CARTESIAN_POINT('',(0.04575,0.05025,0.));
#874=CARTESIAN_POINT('',(0.04575,-0.0833841518109544,0.));
#875=CARTESIAN_POINT('',(0.04575,-0.0833841518109544,0.0032));
#876=CARTESIAN_POINT('',(0.04745,-0.0833841518109544,0.0032));
#877=CARTESIAN_POINT('',(0.049,-0.0833841518109544,0.0032));
#878=CARTESIAN_POINT('',(0.04575,-0.0833841518109544,0.0032));
#879=CARTESIAN_POINT('',(0.049,-0.0833841518109544,0.0032));
#880=CARTESIAN_POINT('',(0.04575,-0.0833841518109544,0.));
#881=CARTESIAN_POINT('',(-0.04575,0.05025,0.));
#882=CARTESIAN_POINT('',(-0.04575,0.05025,0.0032));
#883=CARTESIAN_POINT('',(-0.04405,0.05025,0.0032));
#884=CARTESIAN_POINT('',(-0.0425,0.05025,0.0032));
#885=CARTESIAN_POINT('',(-0.04575,0.05025,0.0032));
#886=CARTESIAN_POINT('',(-0.0425,0.05025,0.0032));
#887=CARTESIAN_POINT('',(-0.04575,0.05025,0.));
#888=CARTESIAN_POINT('',(-0.04575,-0.052,0.));
#889=CARTESIAN_POINT('',(-0.04575,-0.052,0.0032));
#890=CARTESIAN_POINT('',(-0.04405,-0.052,0.0032));
#891=CARTESIAN_POINT('',(-0.0425,-0.052,0.0032));
#892=CARTESIAN_POINT('',(-0.04575,-0.052,0.0032));
#893=CARTESIAN_POINT('',(-0.0425,-0.052,0.0032));
#894=CARTESIAN_POINT('',(-0.04575,-0.052,0.));
#895=CARTESIAN_POINT('',(0.04575,-0.052,0.));
#896=CARTESIAN_POINT('',(0.04575,-0.052,0.0032));
#897=CARTESIAN_POINT('',(0.04745,-0.052,0.0032));
#898=CARTESIAN_POINT('',(0.049,-0.052,0.0032));
#899=CARTESIAN_POINT('',(0.04575,-0.052,0.0032));
#900=CARTESIAN_POINT('',(0.049,-0.052,0.0032));
#901=CARTESIAN_POINT('',(0.04575,-0.052,0.));
#902=MECHANICAL_DESIGN_GEOMETRIC_PRESENTATION_REPRESENTATION('',(#523),
#903);
#903=(
GEOMETRIC_REPRESENTATION_CONTEXT(3)
GLOBAL_UNCERTAINTY_ASSIGNED_CONTEXT((#904))
GLOBAL_UNIT_ASSIGNED_CONTEXT((#907,#906,#905))
REPRESENTATION_CONTEXT('Part 1','TOP_LEVEL_ASSEMBLY_PART')
);
#904=UNCERTAINTY_MEASURE_WITH_UNIT(LENGTH_MEASURE(1.E-8),#907,
'DISTANCE_ACCURACY_VALUE','Maximum Tolerance applied to model');
#905=(
NAMED_UNIT(*)
SI_UNIT($,.STERADIAN.)
SOLID_ANGLE_UNIT()
);
#906=(
NAMED_UNIT(*)
PLANE_ANGLE_UNIT()
SI_UNIT($,.RADIAN.)
);
#907=(
LENGTH_UNIT()
NAMED_UNIT(*)
SI_UNIT($,.METRE.)
);
#908=PRODUCT_DEFINITION_SHAPE('','',#909);
#909=PRODUCT_DEFINITION('','',#911,#910);
#910=PRODUCT_DEFINITION_CONTEXT('',#917,'design');
#911=PRODUCT_DEFINITION_FORMATION_WITH_SPECIFIED_SOURCE('','',#913,
 .NOT_KNOWN.);
#912=PRODUCT_RELATED_PRODUCT_CATEGORY('','',(#913));
#913=PRODUCT('Part 1','Part 1','Part 1',(#915));
#914=PRODUCT_CATEGORY('','');
#915=PRODUCT_CONTEXT('',#917,'mechanical');
#916=APPLICATION_PROTOCOL_DEFINITION('international standard',
'ap242_managed_model_based_3d_engineering',2020,#917);
#917=APPLICATION_CONTEXT('managed model based 3d engineering');
ENDSEC;
END-ISO-10303-21;
